ComicNeue-Angular_Light.ufo
<glyph name="exclam" format="1">
  <advance width="175"/>
  <unicode hex="0021"/>
  <outline>
    <contour>
      <point x="103" y="165" type="line"/>
      <point x="67" y="156" type="line"/>
      <point x="67" y="691" type="line"/>
      <point x="103" y="698" type="line"/>
    </contour>
    <contour>
      <point x="104" y="73" type="line"/>
      <point x="97" y="9" type="line"/>
      <point x="61" y="2" type="line"/>
      <point x="67" y="66" type="line"/>
    </contour>
  </outline>
</glyph>
<glyph name="quotedbl" format="1">
  <advance width="302"/>
  <unicode hex="0022"/>
  <outline>
    <contour>
      <point x="109" y="530" type="line"/>
      <point x="74" y="523" type="line"/>
      <point x="74" y="688" type="line"/>
      <point x="109" y="696" type="line"/>
    </contour>
    <contour>
      <point x="234" y="530" type="line"/>
      <point x="199" y="523" type="line"/>
      <point x="199" y="688" type="line"/>
      <point x="234" y="696" type="line"/>
    </contour>
  </outline>
</glyph>
<glyph name="dollar" format="1">
  <advance width="595"/>
  <unicode hex="0024"/>
  <outline>
    <contour>
      <point x="329" y="647" type="curve"/>
      <point x="329" y="381" type="line"/>
      <point x="469" y="340"/>
      <point x="543" y="275"/>
      <point x="543" y="189" type="curve" smooth="yes"/>
      <point x="543" y="80"/>
      <point x="442" y="12"/>
      <point x="329" y="0" type="curve"/>
      <point x="329" y="-69" type="line"/>
      <point x="295" y="-76" type="line"/>
      <point x="295" y="-1" type="line"/>
      <point x="186" y="7"/>
      <point x="99" y="58"/>
      <point x="69" y="140" type="curve"/>
      <point x="113" y="147" type="line"/>
      <point x="143" y="81"/>
      <point x="221" y="48"/>
      <point x="295" y="39" type="curve"/>
      <point x="295" y="350" type="line"/>
      <point x="201" y="379"/>
      <point x="103" y="431"/>
      <point x="103" y="521" type="curve" smooth="yes"/>
      <point x="103" y="637"/>
      <point x="213" y="681"/>
      <point x="295" y="685" type="curve"/>
      <point x="295" y="752" type="line"/>
      <point x="329" y="759" type="line"/>
      <point x="329" y="688" type="line"/>
      <point x="402" y="686"/>
      <point x="540" y="664"/>
      <point x="540" y="551" type="curve" smooth="yes"/>
      <point x="540" y="542" type="line"/>
      <point x="505" y="533" type="line"/>
      <point x="505" y="545" type="line" smooth="yes"/>
      <point x="505" y="618"/>
      <point x="418" y="646"/>
    </contour>
    <contour>
      <point x="149" y="521" type="curve" smooth="yes"/>
      <point x="149" y="466"/>
      <point x="191" y="427"/>
      <point x="295" y="391" type="curve"/>
      <point x="295" y="645" type="line"/>
      <point x="176" y="631"/>
      <point x="149" y="568"/>
    </contour>
    <contour>
      <point x="498" y="187" type="curve" smooth="yes"/>
      <point x="498" y="276"/>
      <point x="415" y="310"/>
      <point x="329" y="340" type="curve"/>
      <point x="329" y="39" type="line"/>
      <point x="387" y="49"/>
      <point x="498" y="80"/>
    </contour>
  </outline>
</glyph>
<glyph name="quotesingle" format="1">
  <advance width="178"/>
  <unicode hex="0027"/>
  <outline>
    <contour>
      <point x="110" y="530" type="line"/>
      <point x="74" y="523" type="line"/>
      <point x="74" y="688" type="line"/>
      <point x="110" y="696" type="line"/>
    </contour>
  </outline>
</glyph>
<glyph name="plus" format="1">
  <advance width="431"/>
  <unicode hex="002B"/>
  <outline>
    <contour>
      <point x="381" y="269" type="line"/>
      <point x="373" y="233" type="line"/>
      <point x="237" y="233" type="line"/>
      <point x="237" y="98" type="line"/>
      <point x="202" y="91" type="line"/>
      <point x="202" y="233" type="line"/>
      <point x="59" y="233" type="line"/>
      <point x="66" y="269" type="line"/>
      <point x="202" y="269" type="line"/>
      <point x="202" y="399" type="line"/>
      <point x="237" y="407" type="line"/>
      <point x="237" y="269" type="line"/>
    </contour>
  </outline>
</glyph>
<glyph name="comma" format="1">
  <advance width="307"/>
  <unicode hex="002C"/>
  <outline>
    <contour>
      <point x="162" y="60" type="line"/>
      <point x="220" y="29" type="line"/>
      <point x="132" y="-125" type="line"/>
      <point x="100" y="-106" type="line"/>
      <point x="156" y="-6" type="line"/>
      <point x="119" y="16" type="line"/>
    </contour>
  </outline>
</glyph>
<glyph name="hyphen" format="1">
  <advance width="432"/>
  <unicode hex="002D"/>
  <outline>
    <contour>
      <point x="359" y="232" type="line"/>
      <point x="77" y="232" type="line"/>
      <point x="84" y="268" type="line"/>
      <point x="366" y="268" type="line"/>
    </contour>
  </outline>
</glyph>
<glyph name="period" format="1">
  <advance width="212"/>
  <unicode hex="002E"/>
  <outline>
    <contour>
      <point x="139" y="74" type="line"/>
      <point x="131" y="9" type="line"/>
      <point x="77" y="1" type="line"/>
      <point x="83" y="66" type="line"/>
    </contour>
  </outline>
</glyph>
<glyph name="slash" format="1">
  <advance width="482"/>
  <unicode hex="002F"/>
  <outline>
    <contour>
      <point x="420" y="700" type="line"/>
      <point x="460" y="700" type="line"/>
      <point x="75" y="0" type="line"/>
      <point x="36" y="0" type="line"/>
    </contour>
  </outline>
</glyph>
<glyph name="zero" format="1">
  <advance width="604"/>
  <unicode hex="0030"/>
  <outline>
    <contour>
      <point x="297" y="-3" type="curve" smooth="yes"/>
      <point x="166" y="-3"/>
      <point x="71" y="151"/>
      <point x="71" y="327" type="curve" smooth="yes"/>
      <point x="71" y="521"/>
      <point x="181" y="694"/>
      <point x="321" y="694" type="curve" smooth="yes"/>
      <point x="452" y="694"/>
      <point x="546" y="541"/>
      <point x="546" y="362" type="curve" smooth="yes"/>
      <point x="546" y="166"/>
      <point x="433" y="-3"/>
    </contour>
    <contour>
      <point x="321" y="657" type="curve" smooth="yes"/>
      <point x="206" y="657"/>
      <point x="106" y="508"/>
      <point x="106" y="329" type="curve" smooth="yes"/>
      <point x="106" y="175"/>
      <point x="184" y="33"/>
      <point x="297" y="33" type="curve" smooth="yes"/>
      <point x="410" y="33"/>
      <point x="511" y="182"/>
      <point x="511" y="360" type="curve" smooth="yes"/>
      <point x="511" y="517"/>
      <point x="430" y="657"/>
    </contour>
  </outline>
</glyph>
<glyph name="one" format="1">
  <advance width="404"/>
  <unicode hex="0031"/>
  <outline>
    <contour>
      <point x="241" y="35" type="line"/>
      <point x="341" y="35" type="line"/>
      <point x="333" y="0" type="line"/>
      <point x="81" y="0" type="line"/>
      <point x="89" y="35" type="line"/>
      <point x="205" y="35" type="line"/>
      <point x="215" y="595" type="line"/>
      <point x="93" y="484" type="line"/>
      <point x="70" y="511" type="line"/>
      <point x="251" y="676" type="line"/>
    </contour>
  </outline>
</glyph>
<glyph name="seven" format="1">
  <advance width="491"/>
  <unicode hex="0037"/>
  <outline>
    <contour>
      <point x="145" y="4" type="line"/>
      <point x="115" y="20" type="line"/>
      <point x="434" y="647" type="line"/>
      <point x="76" y="647" type="line"/>
      <point x="68" y="682" type="line"/>
      <point x="488" y="682" type="line"/>
    </contour>
  </outline>
</glyph>
<glyph name="semicolon" format="1">
  <advance width="322"/>
  <unicode hex="003B"/>
  <outline>
    <contour>
      <point x="237" y="444" type="line"/>
      <point x="231" y="379" type="line"/>
      <point x="176" y="371" type="line"/>
      <point x="182" y="435" type="line"/>
    </contour>
    <contour>
      <point x="161" y="59" type="line"/>
      <point x="220" y="28" type="line"/>
      <point x="132" y="-125" type="line"/>
      <point x="100" y="-106" type="line"/>
      <point x="156" y="-6" type="line"/>
      <point x="119" y="16" type="line"/>
    </contour>
  </outline>
</glyph>
<glyph name="less" format="1">
  <advance width="558"/>
  <unicode hex="003C"/>
  <outline>
    <contour>
      <point x="452" y="2" type="line"/>
      <point x="83" y="251" type="line"/>
      <point x="469" y="500" type="line"/>
      <point x="490" y="471" type="line"/>
      <point x="147" y="250" type="line"/>
      <point x="471" y="31" type="line"/>
    </contour>
  </outline>
</glyph>
<glyph name="equal" format="1">
  <advance width="495"/>
  <unicode hex="003D"/>
  <outline>
    <contour>
      <point x="418" y="311" type="line"/>
      <point x="82" y="311" type="line"/>
      <point x="90" y="347" type="line"/>
      <point x="425" y="347" type="line"/>
    </contour>
    <contour>
      <point x="418" y="152" type="line"/>
      <point x="82" y="152" type="line"/>
      <point x="90" y="186" type="line"/>
      <point x="425" y="186" type="line"/>
    </contour>
  </outline>
</glyph>
<glyph name="question" format="1">
  <advance width="532"/>
  <unicode hex="003F"/>
  <outline>
    <contour>
      <point x="200" y="73" type="line"/>
      <point x="194" y="9" type="line"/>
      <point x="157" y="2" type="line"/>
      <point x="163" y="66" type="line"/>
    </contour>
    <contour>
      <point x="176" y="201" type="line"/>
      <point x="332" y="341" type="line" smooth="yes"/>
      <point x="378" y="383"/>
      <point x="439" y="438"/>
      <point x="439" y="518" type="curve" smooth="yes"/>
      <point x="439" y="599"/>
      <point x="390" y="686"/>
      <point x="254" y="686" type="curve" smooth="yes"/>
      <point x="165" y="686"/>
      <point x="110" y="621"/>
      <point x="90" y="592" type="curve"/>
      <point x="65" y="616" type="line"/>
      <point x="91" y="652"/>
      <point x="154" y="722"/>
      <point x="254" y="722" type="curve" smooth="yes"/>
      <point x="385" y="722"/>
      <point x="474" y="639"/>
      <point x="474" y="518" type="curve" smooth="yes"/>
      <point x="474" y="418"/>
      <point x="403" y="356"/>
      <point x="352" y="311" type="curve" smooth="yes"/>
      <point x="193" y="170" type="line"/>
    </contour>
  </outline>
</glyph>
<glyph name="at" format="1">
  <advance width="818"/>
  <unicode hex="0040"/>
  <outline>
    <contour>
      <point x="426" y="-65" type="curve" smooth="yes"/>
      <point x="527" y="-65"/>
      <point x="600" y="-23"/>
      <point x="634" y="2" type="curve"/>
      <point x="670" y="-15" type="line"/>
      <point x="638" y="-40"/>
      <point x="551" y="-99"/>
      <point x="426" y="-99" type="curve" smooth="yes"/>
      <point x="230" y="-99"/>
      <point x="68" y="59"/>
      <point x="68" y="252" type="curve" smooth="yes"/>
      <point x="68" y="463"/>
      <point x="226" y="622"/>
      <point x="435" y="622" type="curve" smooth="yes"/>
      <point x="624" y="622"/>
      <point x="773" y="477"/>
      <point x="773" y="286" type="curve" smooth="yes"/>
      <point x="773" y="182"/>
      <point x="716" y="98"/>
      <point x="616" y="98" type="curve"/>
      <point x="547" y="99"/>
      <point x="495" y="139"/>
      <point x="475" y="198" type="curve"/>
      <point x="442" y="153"/>
      <point x="397" y="112"/>
      <point x="350" y="112" type="curve" smooth="yes"/>
      <point x="285" y="112"/>
      <point x="240" y="157"/>
      <point x="240" y="236" type="curve" smooth="yes"/>
      <point x="240" y="334"/>
      <point x="311" y="425"/>
      <point x="407" y="425" type="curve" smooth="yes"/>
      <point x="438" y="425"/>
      <point x="469" y="418"/>
      <point x="498" y="397" type="curve"/>
      <point x="476" y="369" type="line"/>
      <point x="452" y="383"/>
      <point x="431" y="391"/>
      <point x="407" y="391" type="curve" smooth="yes"/>
      <point x="331" y="391"/>
      <point x="275" y="313"/>
      <point x="275" y="236" type="curve" smooth="yes"/>
      <point x="275" y="176"/>
      <point x="309" y="147"/>
      <point x="350" y="147" type="curve" smooth="yes"/>
      <point x="410" y="147"/>
      <point x="460" y="235"/>
      <point x="479" y="276" type="curve"/>
      <point x="512" y="265" type="line"/>
      <point x="508" y="250"/>
      <point x="508" y="240"/>
      <point x="508" y="226" type="curve" smooth="yes"/>
      <point x="508" y="174"/>
      <point x="555" y="133"/>
      <point x="618" y="133" type="curve" smooth="yes"/>
      <point x="700" y="133"/>
      <point x="737" y="201"/>
      <point x="737" y="286" type="curve" smooth="yes"/>
      <point x="737" y="435"/>
      <point x="634" y="586"/>
      <point x="435" y="586" type="curve" smooth="yes"/>
      <point x="270" y="586"/>
      <point x="103" y="472"/>
      <point x="103" y="252" type="curve" smooth="yes"/>
      <point x="103" y="45"/>
      <point x="290" y="-65"/>
    </contour>
  </outline>
</glyph>
<glyph name="E" format="1">
  <advance width="601"/>
  <unicode hex="0045"/>
  <outline>
    <contour>
      <point x="105" y="37" type="line"/>
      <point x="545" y="37" type="line"/>
      <point x="530" y="0" type="line"/>
      <point x="68" y="0" type="line"/>
      <point x="68" y="681" type="line"/>
      <point x="541" y="681" type="line"/>
      <point x="533" y="644" type="line"/>
      <point x="105" y="644" type="line"/>
      <point x="105" y="373" type="line"/>
      <point x="497" y="373" type="line"/>
      <point x="486" y="336" type="line"/>
      <point x="105" y="336" type="line"/>
    </contour>
  </outline>
</glyph>
<glyph name="H" format="1">
  <advance width="673"/>
  <unicode hex="0048"/>
  <outline>
    <contour>
      <point x="579" y="672" type="line"/>
      <point x="616" y="679" type="line"/>
      <point x="616" y="18" type="line"/>
      <point x="579" y="3" type="line"/>
      <point x="579" y="361" type="line"/>
      <point x="104" y="295" type="line"/>
      <point x="104" y="18" type="line"/>
      <point x="67" y="3" type="line"/>
      <point x="67" y="672" type="line"/>
      <point x="104" y="679" type="line"/>
      <point x="104" y="333" type="line"/>
      <point x="579" y="399" type="line"/>
    </contour>
  </outline>
</glyph>
<glyph name="J" format="1">
  <advance width="459"/>
  <unicode hex="004A"/>
  <outline>
    <contour>
      <point x="195" y="679" type="line"/>
      <point x="444" y="679" type="line"/>
      <point x="444" y="641" type="line"/>
      <point x="391" y="641" type="line"/>
      <point x="391" y="157" type="line" smooth="yes"/>
      <point x="391" y="65"/>
      <point x="322" y="1"/>
      <point x="222" y="1" type="curve" smooth="yes"/>
      <point x="124" y="1"/>
      <point x="53" y="67"/>
      <point x="53" y="157" type="curve" smooth="yes"/>
      <point x="53" y="183" type="line"/>
      <point x="90" y="191" type="line"/>
      <point x="90" y="157" type="line" smooth="yes"/>
      <point x="90" y="86"/>
      <point x="144" y="33"/>
      <point x="222" y="33" type="curve" smooth="yes"/>
      <point x="302" y="33"/>
      <point x="354" y="84"/>
      <point x="354" y="157" type="curve" smooth="yes"/>
      <point x="354" y="641" type="line"/>
      <point x="195" y="641" type="line"/>
    </contour>
  </outline>
</glyph>
<glyph name="K" format="1">
  <advance width="567"/>
  <unicode hex="004B"/>
  <outline>
    <contour>
      <point x="518" y="32" type="line"/>
      <point x="498" y="4" type="line"/>
      <point x="103" y="304" type="line"/>
      <point x="103" y="9" type="line"/>
      <point x="68" y="2" type="line"/>
      <point x="68" y="672" type="line"/>
      <point x="103" y="679" type="line"/>
      <point x="103" y="368" type="line"/>
      <point x="470" y="675" type="line"/>
      <point x="492" y="649" type="line"/>
      <point x="118" y="336" type="line"/>
    </contour>
  </outline>
</glyph>
<glyph name="Q" format="1">
  <advance width="711"/>
  <unicode hex="0051"/>
  <outline>
    <contour>
      <point x="538" y="83" type="curve"/>
      <point x="667" y="-1" type="line"/>
      <point x="652" y="-33" type="line"/>
      <point x="510" y="61" type="line"/>
      <point x="455" y="22"/>
      <point x="393" y="-1"/>
      <point x="333" y="-1" type="curve" smooth="yes"/>
      <point x="172" y="-1"/>
      <point x="52" y="143"/>
      <point x="52" y="315" type="curve" smooth="yes"/>
      <point x="52" y="515"/>
      <point x="203" y="679"/>
      <point x="379" y="679" type="curve" smooth="yes"/>
      <point x="541" y="679"/>
      <point x="661" y="537"/>
      <point x="661" y="367" type="curve" smooth="yes"/>
      <point x="661" y="259"/>
      <point x="614" y="158"/>
    </contour>
    <contour>
      <point x="399" y="177" type="line"/>
      <point x="509" y="107" type="line"/>
      <point x="577" y="170"/>
      <point x="620" y="263"/>
      <point x="620" y="360" type="curve" smooth="yes"/>
      <point x="620" y="504"/>
      <point x="521" y="644"/>
      <point x="377" y="644" type="curve" smooth="yes"/>
      <point x="228" y="644"/>
      <point x="94" y="495"/>
      <point x="94" y="313" type="curve" smooth="yes"/>
      <point x="94" y="157"/>
      <point x="196" y="33"/>
      <point x="333" y="33" type="curve" smooth="yes"/>
      <point x="381" y="33"/>
      <point x="434" y="53"/>
      <point x="482" y="84" type="curve"/>
      <point x="366" y="158" type="line"/>
    </contour>
  </outline>
</glyph>
<glyph name="R" format="1">
  <advance width="584"/>
  <unicode hex="0052"/>
  <outline>
    <contour>
      <point x="105" y="649" type="line"/>
      <point x="105" y="283" type="line"/>
      <point x="319" y="291"/>
      <point x="482" y="372"/>
      <point x="482" y="476" type="curve" smooth="yes"/>
      <point x="482" y="571"/>
      <point x="412" y="649"/>
      <point x="158" y="649" type="curve" smooth="yes"/>
    </contour>
    <contour>
      <point x="104" y="242" type="curve"/>
      <point x="104" y="9" type="line"/>
      <point x="68" y="2" type="line"/>
      <point x="68" y="683" type="line"/>
      <point x="90" y="686"/>
      <point x="136" y="686"/>
      <point x="170" y="687" type="curve"/>
      <point x="312" y="687"/>
      <point x="518" y="658"/>
      <point x="518" y="480" type="curve" smooth="yes"/>
      <point x="518" y="398"/>
      <point x="438" y="318"/>
      <point x="310" y="278" type="curve"/>
      <point x="376" y="238"/>
      <point x="464" y="162"/>
      <point x="537" y="31" type="curve"/>
      <point x="510" y="6" type="line"/>
      <point x="430" y="156"/>
      <point x="341" y="218"/>
      <point x="291" y="244" type="curve" smooth="yes"/>
      <point x="274" y="253"/>
      <point x="244" y="257"/>
      <point x="221" y="257" type="curve" smooth="yes"/>
      <point x="196" y="257"/>
      <point x="145" y="250"/>
    </contour>
  </outline>
</glyph>
<glyph name="Z" format="1">
  <advance width="611"/>
  <unicode hex="005A"/>
  <outline>
    <contour>
      <point x="72" y="0" type="line"/>
      <point x="52" y="44" type="line"/>
      <point x="518" y="639" type="line"/>
      <point x="83" y="639" type="line"/>
      <point x="92" y="681" type="line"/>
      <point x="547" y="681" type="line"/>
      <point x="567" y="637" type="line"/>
      <point x="100" y="42" type="line"/>
      <point x="557" y="42" type="line"/>
      <point x="549" y="0" type="line"/>
    </contour>
  </outline>
</glyph>
<glyph name="bracketleft" format="1">
  <advance width="305"/>
  <unicode hex="005B"/>
  <outline>
    <contour>
      <point x="226" y="-129" type="line"/>
      <point x="71" y="-129" type="line"/>
      <point x="71" y="818" type="line"/>
      <point x="249" y="818" type="line"/>
      <point x="242" y="782" type="line"/>
      <point x="106" y="782" type="line"/>
      <point x="106" y="-94" type="line"/>
      <point x="233" y="-94" type="line"/>
    </contour>
  </outline>
</glyph>
<glyph name="backslash" format="1">
  <advance width="482"/>
  <unicode hex="005C"/>
  <outline>
    <contour>
      <point x="74" y="701" type="line"/>
      <point x="459" y="0" type="line"/>
      <point x="419" y="0" type="line"/>
      <point x="35" y="701" type="line"/>
    </contour>
  </outline>
</glyph>
<glyph name="b" format="1">
  <advance width="518"/>
  <unicode hex="0062"/>
  <outline>
    <contour>
      <point x="323" y="490" type="curve" smooth="yes"/>
      <point x="430" y="490"/>
      <point x="477" y="372"/>
      <point x="477" y="269" type="curve" smooth="yes"/>
      <point x="477" y="216"/>
      <point x="473" y="1"/>
      <point x="259" y="1" type="curve" smooth="yes"/>
      <point x="206" y="1"/>
      <point x="144" y="20"/>
      <point x="105" y="35" type="curve"/>
      <point x="105" y="2" type="line"/>
      <point x="67" y="9" type="line"/>
      <point x="67" y="689" type="line"/>
      <point x="105" y="698" type="line"/>
      <point x="105" y="382" type="line"/>
      <point x="151" y="448"/>
      <point x="231" y="490"/>
    </contour>
    <contour>
      <point x="251" y="36" type="curve" smooth="yes"/>
      <point x="389" y="36"/>
      <point x="442" y="136"/>
      <point x="442" y="269" type="curve" smooth="yes"/>
      <point x="442" y="336"/>
      <point x="415" y="452"/>
      <point x="309" y="452" type="curve" smooth="yes"/>
      <point x="191" y="452"/>
      <point x="105" y="381"/>
      <point x="105" y="293" type="curve" smooth="yes"/>
      <point x="105" y="69" type="line"/>
      <point x="127" y="58"/>
      <point x="189" y="36"/>
    </contour>
  </outline>
</glyph>
<glyph name="f" format="1">
  <advance width="322"/>
  <unicode hex="0066"/>
  <outline>
    <contour>
      <point x="313" y="702" type="line"/>
      <point x="296" y="667" type="line"/>
      <point x="294.701" y="667.01"/>
      <point x="293.413" y="667.016"/>
      <point x="292.136" y="667.016" type="curve" smooth="yes"/>
      <point x="170.442" y="667.016"/>
      <point x="144" y="619.764"/>
      <point x="144" y="502" type="curve"/>
      <point x="277" y="502" type="line"/>
      <point x="270" y="470" type="line"/>
      <point x="139" y="470" type="line"/>
      <point x="139" y="9" type="line"/>
      <point x="101" y="2" type="line"/>
      <point x="101" y="470" type="line"/>
      <point x="15" y="470" type="line"/>
      <point x="21" y="502" type="line"/>
      <point x="101" y="502" type="line"/>
      <point x="101" y="649"/>
      <point x="163" y="702"/>
      <point x="295" y="702" type="curve" smooth="yes"/>
    </contour>
  </outline>
</glyph>
<glyph name="g" format="1">
  <advance width="512"/>
  <unicode hex="0067"/>
  <outline>
    <contour>
      <point x="455" y="506" type="line"/>
      <point x="444" y="9" type="line" smooth="yes"/>
      <point x="441" y="-121"/>
      <point x="368" y="-193"/>
      <point x="244" y="-193" type="curve" smooth="yes"/>
      <point x="200" y="-193"/>
      <point x="157" y="-187"/>
      <point x="125" y="-181" type="curve"/>
      <point x="132" y="-144" type="line"/>
      <point x="162" y="-149"/>
      <point x="203" y="-155"/>
      <point x="244" y="-155" type="curve" smooth="yes"/>
      <point x="389" y="-155"/>
      <point x="405" y="-40"/>
      <point x="406" y="8" type="curve" smooth="yes"/>
      <point x="408" y="103" type="line"/>
      <point x="367" y="35"/>
      <point x="306" y="0"/>
      <point x="249" y="0" type="curve" smooth="yes"/>
      <point x="137" y="0"/>
      <point x="53" y="104"/>
      <point x="53" y="240" type="curve" smooth="yes"/>
      <point x="53" y="370"/>
      <point x="146" y="501"/>
      <point x="290" y="501" type="curve" smooth="yes"/>
      <point x="336" y="501"/>
      <point x="382" y="479"/>
      <point x="417" y="459" type="curve"/>
      <point x="417" y="500" type="line"/>
    </contour>
    <contour>
      <point x="413" y="269" type="curve" smooth="yes"/>
      <point x="413" y="425" type="line"/>
      <point x="386" y="445"/>
      <point x="336" y="465"/>
      <point x="292" y="465" type="curve" smooth="yes"/>
      <point x="169" y="465"/>
      <point x="87" y="354"/>
      <point x="87" y="233" type="curve" smooth="yes"/>
      <point x="87" y="156"/>
      <point x="130" y="34"/>
      <point x="244" y="34" type="curve"/>
      <point x="322" y="35"/>
      <point x="413" y="91"/>
    </contour>
  </outline>
</glyph>
<glyph name="j" format="1">
  <advance width="303"/>
  <unicode hex="006A"/>
  <outline>
    <contour>
      <point x="239" y="703" type="line"/>
      <point x="232" y="639" type="line"/>
      <point x="196" y="632" type="line"/>
      <point x="200" y="696" type="line"/>
    </contour>
    <contour>
      <point x="-34" y="-28" type="curve"/>
      <point x="3" y="-21" type="line"/>
      <point x="24" y="-67"/>
      <point x="70" y="-155"/>
      <point x="124" y="-155" type="curve" smooth="yes"/>
      <point x="178" y="-155"/>
      <point x="202" y="-92"/>
      <point x="202" y="-16" type="curve" smooth="yes"/>
      <point x="202" y="2"/>
      <point x="199" y="231"/>
      <point x="195" y="503" type="curve"/>
      <point x="233" y="511" type="line"/>
      <point x="238" y="234"/>
      <point x="241" y="7"/>
      <point x="241" y="-10" type="curve" smooth="yes"/>
      <point x="241" y="-81"/>
      <point x="214" y="-187"/>
      <point x="124" y="-187" type="curve" smooth="yes"/>
      <point x="38" y="-187"/>
      <point x="-19" y="-66"/>
    </contour>
  </outline>
</glyph>
<glyph name="k" format="1">
  <advance width="484"/>
  <unicode hex="006B"/>
  <outline>
    <contour>
      <point x="242" y="303" type="curve"/>
      <point x="250" y="294"/>
      <point x="353" y="167"/>
      <point x="458" y="30" type="curve"/>
      <point x="430" y="5" type="line"/>
      <point x="358" y="115"/>
      <point x="264" y="227"/>
      <point x="214" y="280" type="curve"/>
      <point x="170" y="247"/>
      <point x="135" y="221"/>
      <point x="107" y="205" type="curve"/>
      <point x="108" y="9" type="line"/>
      <point x="70" y="2" type="line"/>
      <point x="68" y="689" type="line"/>
      <point x="106" y="698" type="line"/>
      <point x="107" y="245" type="line"/>
      <point x="184" y="285"/>
      <point x="330" y="425"/>
      <point x="412" y="531" type="curve"/>
      <point x="442" y="510" type="line"/>
      <point x="393" y="449"/>
      <point x="286" y="338"/>
    </contour>
  </outline>
</glyph>
<glyph name="l" format="1">
  <advance width="216"/>
  <unicode hex="006C"/>
  <outline>
    <contour>
      <point x="91" y="689" type="line"/>
      <point x="129" y="698" type="line"/>
      <point x="129" y="9" type="line"/>
      <point x="91" y="2" type="line"/>
    </contour>
  </outline>
</glyph>
<glyph name="p" format="1">
  <advance width="508"/>
  <unicode hex="0070"/>
  <outline>
    <contour>
      <point x="311" y="496" type="curve"/>
      <point x="419" y="493"/>
      <point x="466" y="375"/>
      <point x="466" y="271" type="curve" smooth="yes"/>
      <point x="466" y="139"/>
      <point x="411" y="7"/>
      <point x="255" y="7" type="curve" smooth="yes"/>
      <point x="203" y="7"/>
      <point x="144" y="26"/>
      <point x="105" y="42" type="curve"/>
      <point x="105" y="-192" type="line"/>
      <point x="68" y="-199" type="line"/>
      <point x="68" y="488" type="line"/>
      <point x="105" y="497" type="line"/>
      <point x="105" y="412" type="line"/>
      <point x="156" y="458"/>
      <point x="223" y="496"/>
    </contour>
    <contour>
      <point x="256" y="41" type="curve" smooth="yes"/>
      <point x="387" y="41"/>
      <point x="432" y="146"/>
      <point x="432" y="267" type="curve" smooth="yes"/>
      <point x="432" y="344"/>
      <point x="408" y="460"/>
      <point x="300" y="460" type="curve" smooth="yes"/>
      <point x="188" y="460"/>
      <point x="124" y="392"/>
      <point x="105" y="364" type="curve"/>
      <point x="105" y="80" type="line"/>
      <point x="127" y="70"/>
      <point x="193" y="41"/>
    </contour>
  </outline>
</glyph>
<glyph name="t" format="1">
  <advance width="363"/>
  <unicode hex="0074"/>
  <outline>
    <contour>
      <point x="348" y="502" type="line"/>
      <point x="348" y="465" type="line"/>
      <point x="205" y="465" type="line"/>
      <point x="205" y="9" type="line"/>
      <point x="166" y="2" type="line"/>
      <point x="166" y="465" type="line"/>
      <point x="22" y="465" type="line"/>
      <point x="22" y="502" type="line"/>
      <point x="166" y="502" type="line"/>
      <point x="166" y="669" type="line"/>
      <point x="205" y="676" type="line"/>
      <point x="205" y="502" type="line"/>
    </contour>
  </outline>
</glyph>
<glyph name="w" format="1">
  <advance width="643"/>
  <unicode hex="0077"/>
  <outline>
    <contour>
      <point x="460" y="40" type="line"/>
      <point x="592" y="485" type="line"/>
      <point x="632" y="494" type="line"/>
      <point x="481" y="11" type="line"/>
      <point x="436" y="2" type="line"/>
      <point x="334" y="430" type="line"/>
      <point x="187" y="11" type="line"/>
      <point x="140" y="2" type="line"/>
      <point x="42" y="486" type="line"/>
      <point x="78" y="495" type="line"/>
      <point x="167" y="43" type="line"/>
      <point x="314" y="485" type="line"/>
      <point x="356" y="494" type="line"/>
    </contour>
  </outline>
</glyph>
<glyph name="x" format="1">
  <advance width="461"/>
  <unicode hex="0078"/>
  <outline>
    <contour>
      <point x="421" y="21" type="line"/>
      <point x="391" y="0" type="line"/>
      <point x="231" y="228" type="line"/>
      <point x="42" y="0" type="line"/>
      <point x="14" y="24" type="line"/>
      <point x="210" y="259" type="line"/>
      <point x="57" y="479" type="line"/>
      <point x="87" y="500" type="line"/>
      <point x="234" y="288" type="line"/>
      <point x="410" y="500" type="line"/>
      <point x="438" y="476" type="line"/>
      <point x="256" y="257" type="line"/>
    </contour>
  </outline>
</glyph>
<glyph name="z" format="1">
  <advance width="443"/>
  <unicode hex="007A"/>
  <outline>
    <contour>
      <point x="404" y="0" type="line"/>
      <point x="51" y="0" type="line"/>
      <point x="33" y="35" type="line"/>
      <point x="375" y="465" type="line"/>
      <point x="57" y="465" type="line"/>
      <point x="65" y="502" type="line"/>
      <point x="402" y="502" type="line"/>
      <point x="420" y="468" type="line"/>
      <point x="78" y="37" type="line"/>
      <point x="411" y="37" type="line"/>
    </contour>
  </outline>
</glyph>
<glyph name="braceleft" format="1">
  <advance width="364"/>
  <unicode hex="007B"/>
  <outline>
    <contour>
      <point x="69" y="337" type="curve"/>
      <point x="69" y="371" type="line"/>
      <point x="116" y="390"/>
      <point x="146" y="428"/>
      <point x="146" y="482" type="curve" smooth="yes"/>
      <point x="146" y="679" type="line" smooth="yes"/>
      <point x="146" y="781"/>
      <point x="244" y="818"/>
      <point x="306" y="823" type="curve"/>
      <point x="304" y="787" type="line"/>
      <point x="234" y="782"/>
      <point x="182" y="743"/>
      <point x="182" y="679" type="curve" smooth="yes"/>
      <point x="182" y="483" type="line" smooth="yes"/>
      <point x="182" y="452"/>
      <point x="172" y="400"/>
      <point x="114" y="354" type="curve"/>
      <point x="152" y="326"/>
      <point x="182" y="281"/>
      <point x="182" y="225" type="curve" smooth="yes"/>
      <point x="182" y="14" type="line" smooth="yes"/>
      <point x="182" y="-45"/>
      <point x="222" y="-84"/>
      <point x="307" y="-94" type="curve"/>
      <point x="305" y="-130" type="line"/>
      <point x="244" y="-126"/>
      <point x="146" y="-92"/>
      <point x="146" y="14" type="curve" smooth="yes"/>
      <point x="146" y="233" type="line" smooth="yes"/>
      <point x="146" y="280"/>
      <point x="113" y="322"/>
    </contour>
  </outline>
</glyph>
<glyph name="bar" format="1">
  <advance width="245"/>
  <unicode hex="007C"/>
  <outline>
    <contour>
      <point x="143" y="-65" type="line"/>
      <point x="108" y="-72" type="line"/>
      <point x="108" y="756" type="line"/>
      <point x="143" y="763" type="line"/>
    </contour>
  </outline>
</glyph>
<glyph name="braceright" format="1">
  <advance width="364"/>
  <unicode hex="007D"/>
  <outline>
    <contour>
      <point x="296" y="356" type="curve"/>
      <point x="296" y="322" type="line"/>
      <point x="249" y="304"/>
      <point x="219" y="265"/>
      <point x="219" y="211" type="curve" smooth="yes"/>
      <point x="219" y="14" type="line" smooth="yes"/>
      <point x="219" y="-88"/>
      <point x="121" y="-125"/>
      <point x="59" y="-130" type="curve"/>
      <point x="61" y="-94" type="line"/>
      <point x="131" y="-89"/>
      <point x="183" y="-50"/>
      <point x="183" y="14" type="curve" smooth="yes"/>
      <point x="183" y="210" type="line" smooth="yes"/>
      <point x="183" y="241"/>
      <point x="193" y="293"/>
      <point x="251" y="339" type="curve"/>
      <point x="213" y="367"/>
      <point x="183" y="412"/>
      <point x="183" y="468" type="curve" smooth="yes"/>
      <point x="183" y="679" type="line" smooth="yes"/>
      <point x="183" y="738"/>
      <point x="143" y="777"/>
      <point x="58" y="787" type="curve"/>
      <point x="60" y="823" type="line"/>
      <point x="121" y="819"/>
      <point x="219" y="785"/>
      <point x="219" y="679" type="curve" smooth="yes"/>
      <point x="219" y="460" type="line" smooth="yes"/>
      <point x="219" y="413"/>
      <point x="252" y="371"/>
    </contour>
  </outline>
</glyph>
<glyph name="exclamdown" format="1">
  <advance width="175"/>
  <unicode hex="00A1"/>
  <outline>
    <contour>
      <point x="62" y="335" type="line"/>
      <point x="97" y="344" type="line"/>
      <point x="97" y="-191" type="line"/>
      <point x="62" y="-198" type="line"/>
    </contour>
    <contour>
      <point x="61" y="427" type="line"/>
      <point x="67" y="491" type="line"/>
      <point x="104" y="498" type="line"/>
      <point x="97" y="434" type="line"/>
    </contour>
  </outline>
</glyph>
<glyph name="cent" format="1">
  <advance width="496"/>
  <unicode hex="00A2"/>
  <outline>
    <contour>
      <point x="267" y="101" type="curve"/>
      <point x="265" y="15" type="line"/>
      <point x="234" y="4" type="line"/>
      <point x="236" y="103" type="line"/>
      <point x="118" y="128"/>
      <point x="53" y="221"/>
      <point x="53" y="317" type="curve" smooth="yes"/>
      <point x="53" y="430"/>
      <point x="123" y="563"/>
      <point x="248" y="601" type="curve"/>
      <point x="250" y="681" type="line"/>
      <point x="282" y="691" type="line"/>
      <point x="280" y="603" type="line"/>
      <point x="339" y="603"/>
      <point x="388" y="578"/>
      <point x="420" y="539" type="curve"/>
      <point x="393" y="513" type="line"/>
      <point x="368" y="546"/>
      <point x="327" y="571"/>
      <point x="278" y="571" type="curve"/>
      <point x="268" y="134" type="line"/>
      <point x="335" y="134"/>
      <point x="394" y="170"/>
      <point x="426" y="216" type="curve"/>
      <point x="451" y="191" type="line"/>
      <point x="414" y="136"/>
      <point x="351" y="104"/>
    </contour>
    <contour>
      <point x="237" y="136" type="curve"/>
      <point x="247" y="568" type="line"/>
      <point x="127" y="522"/>
      <point x="88" y="390"/>
      <point x="88" y="317" type="curve" smooth="yes"/>
      <point x="88" y="239"/>
      <point x="138" y="159"/>
    </contour>
  </outline>
</glyph>
<glyph name="section" format="1">
  <advance width="465"/>
  <unicode hex="00A7"/>
  <outline>
    <contour>
      <point x="410" y="530" type="curve"/>
      <point x="374" y="534" type="line"/>
      <point x="375" y="537"/>
      <point x="375" y="541"/>
      <point x="375" y="545" type="curve" smooth="yes"/>
      <point x="375" y="588"/>
      <point x="341" y="619"/>
      <point x="262" y="619" type="curve" smooth="yes"/>
      <point x="182" y="619"/>
      <point x="125" y="588"/>
      <point x="125" y="535" type="curve" smooth="yes"/>
      <point x="125" y="468"/>
      <point x="199" y="447"/>
      <point x="244" y="433" type="curve" smooth="yes"/>
      <point x="337" y="403"/>
      <point x="409" y="381"/>
      <point x="409" y="285" type="curve" smooth="yes"/>
      <point x="409" y="265"/>
      <point x="401" y="241"/>
      <point x="385" y="217" type="curve"/>
      <point x="400" y="195"/>
      <point x="410" y="169"/>
      <point x="410" y="136" type="curve" smooth="yes"/>
      <point x="410" y="72"/>
      <point x="345" y="0"/>
      <point x="242" y="0" type="curve" smooth="yes"/>
      <point x="135" y="0"/>
      <point x="77" y="75"/>
      <point x="64" y="115" type="curve"/>
      <point x="100" y="121" type="line"/>
      <point x="123" y="65"/>
      <point x="173" y="34"/>
      <point x="242" y="34" type="curve" smooth="yes"/>
      <point x="343" y="34"/>
      <point x="375" y="104"/>
      <point x="375" y="137" type="curve" smooth="yes"/>
      <point x="375" y="191"/>
      <point x="354" y="218"/>
      <point x="245" y="251" type="curve" smooth="yes"/>
      <point x="140" y="282"/>
      <point x="93" y="320"/>
      <point x="93" y="387" type="curve" smooth="yes"/>
      <point x="93" y="416"/>
      <point x="105" y="440"/>
      <point x="122" y="460" type="curve"/>
      <point x="103" y="483"/>
      <point x="92" y="508"/>
      <point x="92" y="536" type="curve" smooth="yes"/>
      <point x="92" y="627"/>
      <point x="189" y="650"/>
      <point x="259" y="650" type="curve" smooth="yes"/>
      <point x="362" y="650"/>
      <point x="411" y="602"/>
      <point x="411" y="543" type="curve" smooth="yes"/>
      <point x="411" y="537"/>
      <point x="411" y="535"/>
    </contour>
    <contour>
      <point x="360" y="239" type="curve"/>
      <point x="369" y="250"/>
      <point x="374" y="277"/>
      <point x="374" y="286" type="curve" smooth="yes"/>
      <point x="374" y="340"/>
      <point x="353" y="366"/>
      <point x="244" y="400" type="curve"/>
      <point x="209" y="410"/>
      <point x="177" y="424"/>
      <point x="150" y="440" type="curve"/>
      <point x="134" y="422"/>
      <point x="127" y="405"/>
      <point x="127" y="386" type="curve" smooth="yes"/>
      <point x="127" y="321"/>
      <point x="200" y="298"/>
      <point x="245" y="284" type="curve" smooth="yes"/>
      <point x="284" y="273"/>
      <point x="334" y="254"/>
    </contour>
  </outline>
</glyph>
<glyph name="dieresis" format="1">
  <advance width="490"/>
  <unicode hex="00A8"/>
  <outline>
    <contour>
      <point x="198" y="669" type="line"/>
      <point x="191" y="604" type="line"/>
      <point x="137" y="596" type="line"/>
      <point x="143" y="660" type="line"/>
    </contour>
    <contour>
      <point x="365" y="669" type="line"/>
      <point x="357" y="604" type="line"/>
      <point x="303" y="596" type="line"/>
      <point x="310" y="660" type="line"/>
    </contour>
  </outline>
</glyph>
<glyph name="uni00AD" format="1">
  <advance width="432"/>
  <unicode hex="00AD"/>
  <outline>
    <contour>
      <point x="366" y="272" type="line"/>
      <point x="359" y="236" type="line"/>
      <point x="77" y="236" type="line"/>
      <point x="84" y="272" type="line"/>
    </contour>
  </outline>
</glyph>
<glyph name="macron" format="1">
  <advance width="490"/>
  <unicode hex="00AF"/>
  <outline>
    <contour>
      <point x="367" y="611" type="line"/>
      <point x="126" y="611" type="line"/>
      <point x="134" y="647" type="line"/>
      <point x="374" y="647" type="line"/>
    </contour>
  </outline>
</glyph>
<glyph name="plusminus" format="1">
  <advance width="425"/>
  <unicode hex="00B1"/>
  <outline>
    <contour>
      <point x="73" y="0" type="line"/>
      <point x="80" y="33" type="line"/>
      <point x="359" y="33" type="line"/>
      <point x="352" y="0" type="line"/>
    </contour>
    <contour>
      <point x="375" y="317" type="line"/>
      <point x="366" y="281" type="line"/>
      <point x="234" y="281" type="line"/>
      <point x="234" y="149" type="line"/>
      <point x="199" y="142" type="line"/>
      <point x="199" y="281" type="line"/>
      <point x="59" y="281" type="line"/>
      <point x="67" y="317" type="line"/>
      <point x="199" y="317" type="line"/>
      <point x="199" y="444" type="line"/>
      <point x="234" y="452" type="line"/>
      <point x="234" y="317" type="line"/>
    </contour>
  </outline>
</glyph>
<glyph name="twosuperior" format="1">
  <advance width="227"/>
  <unicode hex="00B2"/>
  <outline>
    <contour>
      <point x="25" y="755" type="curve"/>
      <point x="5" y="776" type="line"/>
      <point x="28" y="806"/>
      <point x="72" y="834"/>
      <point x="118" y="834" type="curve" smooth="yes"/>
      <point x="198" y="834"/>
      <point x="222" y="778"/>
      <point x="222" y="744" type="curve" smooth="yes"/>
      <point x="222" y="688"/>
      <point x="163" y="639"/>
      <point x="118" y="610" type="curve" smooth="yes"/>
      <point x="64" y="576"/>
      <point x="40" y="549"/>
      <point x="32" y="483" type="curve"/>
      <point x="227" y="483" type="line"/>
      <point x="221" y="457" type="line"/>
      <point x="6" y="457" type="line"/>
      <point x="6" y="470" type="line" smooth="yes"/>
      <point x="6" y="551"/>
      <point x="37" y="588"/>
      <point x="103" y="632" type="curve" smooth="yes"/>
      <point x="168" y="675"/>
      <point x="196" y="709"/>
      <point x="196" y="744" type="curve" smooth="yes"/>
      <point x="196" y="783"/>
      <point x="157" y="807"/>
      <point x="118" y="807" type="curve" smooth="yes"/>
      <point x="86" y="807"/>
      <point x="52" y="795"/>
    </contour>
  </outline>
</glyph>
<glyph name="acute" format="1">
  <advance width="490"/>
  <unicode hex="00B4"/>
  <outline>
    <contour>
      <point x="162" y="617" type="line"/>
      <point x="301" y="730" type="line"/>
      <point x="339" y="698" type="line"/>
      <point x="187" y="593" type="line"/>
    </contour>
  </outline>
</glyph>
<glyph name="periodcentered" format="1">
  <advance width="490"/>
  <unicode hex="00B7"/>
  <outline>
    <contour>
      <point x="281" y="290" type="line"/>
      <point x="274" y="225" type="line"/>
      <point x="220" y="217" type="line"/>
      <point x="226" y="281" type="line"/>
    </contour>
  </outline>
</glyph>
<glyph name="cedilla" format="1">
  <advance width="490"/>
  <unicode hex="00B8"/>
  <outline>
    <contour>
      <point x="220" y="20" type="line"/>
      <point x="218" y="-41" type="line"/>
      <point x="232" y="-41" type="line" smooth="yes"/>
      <point x="285" y="-41"/>
      <point x="324" y="-74"/>
      <point x="324" y="-125" type="curve" smooth="yes"/>
      <point x="324" y="-172"/>
      <point x="287" y="-209"/>
      <point x="240" y="-209" type="curve" smooth="yes"/>
      <point x="216" y="-209"/>
      <point x="194" y="-200"/>
      <point x="178" y="-184" type="curve"/>
      <point x="195" y="-168" type="line"/>
      <point x="206" y="-177"/>
      <point x="219" y="-186"/>
      <point x="240" y="-186" type="curve" smooth="yes"/>
      <point x="274" y="-186"/>
      <point x="301" y="-159"/>
      <point x="301" y="-125" type="curve" smooth="yes"/>
      <point x="301" y="-91"/>
      <point x="274" y="-64"/>
      <point x="240" y="-64" type="curve" smooth="yes"/>
      <point x="229" y="-64"/>
      <point x="217" y="-68"/>
      <point x="209" y="-72" type="curve"/>
      <point x="188" y="-52" type="line"/>
      <point x="212" y="15" type="line"/>
    </contour>
  </outline>
</glyph>
<glyph name="onesuperior" format="1">
  <advance width="169"/>
  <unicode hex="00B9"/>
  <outline>
    <contour>
      <point x="16" y="473" type="line"/>
      <point x="20" y="500" type="line"/>
      <point x="85" y="500" type="line"/>
      <point x="89" y="796" type="line"/>
      <point x="25" y="738" type="line"/>
      <point x="8" y="759" type="line"/>
      <point x="117" y="857" type="line"/>
      <point x="112" y="500" type="line"/>
      <point x="168" y="500" type="line"/>
      <point x="162" y="473" type="line"/>
    </contour>
  </outline>
</glyph>
<glyph name="questiondown" format="1">
  <advance width="491"/>
  <unicode hex="00BF"/>
  <outline>
    <contour>
      <point x="275" y="649" type="line"/>
      <point x="281" y="713" type="line"/>
      <point x="318" y="720" type="line"/>
      <point x="312" y="656" type="line"/>
    </contour>
    <contour>
      <point x="299" y="521" type="line"/>
      <point x="143" y="381" type="line" smooth="yes"/>
      <point x="97" y="339"/>
      <point x="36" y="284"/>
      <point x="36" y="204" type="curve" smooth="yes"/>
      <point x="36" y="123"/>
      <point x="85" y="36"/>
      <point x="221" y="36" type="curve" smooth="yes"/>
      <point x="310" y="36"/>
      <point x="365" y="101"/>
      <point x="385" y="130" type="curve"/>
      <point x="410" y="106" type="line"/>
      <point x="384" y="70"/>
      <point x="321" y="0"/>
      <point x="221" y="0" type="curve" smooth="yes"/>
      <point x="90" y="0"/>
      <point x="1" y="83"/>
      <point x="1" y="204" type="curve" smooth="yes"/>
      <point x="1" y="304"/>
      <point x="72" y="366"/>
      <point x="123" y="411" type="curve" smooth="yes"/>
      <point x="282" y="552" type="line"/>
    </contour>
  </outline>
</glyph>
<glyph name="Acircumflex" format="1">
  <advance width="613"/>
  <unicode hex="00C2"/>
  <outline>
    <contour>
      <point x="217" y="743" type="line"/>
      <point x="195" y="771" type="line"/>
      <point x="335" y="884" type="line"/>
      <point x="454" y="771" type="line"/>
      <point x="431" y="745" type="line"/>
      <point x="332" y="833" type="line"/>
    </contour>
    <contour>
      <point x="355" y="679" type="line"/>
      <point x="568" y="29" type="line"/>
      <point x="538" y="7" type="line"/>
      <point x="451" y="271" type="line"/>
      <point x="164" y="211" type="line"/>
      <point x="87" y="4" type="line"/>
      <point x="54" y="22" type="line"/>
      <point x="120" y="201" type="line"/>
      <point x="72" y="191" type="line"/>
      <point x="64" y="227" type="line"/>
      <point x="137" y="241" type="line"/>
      <point x="296" y="668" type="line"/>
    </contour>
    <contour>
      <point x="180" y="251" type="line"/>
      <point x="439" y="304" type="line"/>
      <point x="327" y="646" type="line"/>
    </contour>
  </outline>
</glyph>
<glyph name="Aring" format="1">
  <advance width="613"/>
  <unicode hex="00C5"/>
  <outline>
    <contour>
      <point x="312" y="743" type="curve" smooth="yes"/>
      <point x="249" y="743"/>
      <point x="205" y="786"/>
      <point x="205" y="838" type="curve" smooth="yes"/>
      <point x="205" y="897"/>
      <point x="262" y="948"/>
      <point x="332" y="948" type="curve" smooth="yes"/>
      <point x="398" y="948"/>
      <point x="439" y="900"/>
      <point x="439" y="853" type="curve" smooth="yes"/>
      <point x="439" y="783"/>
      <point x="371" y="743"/>
    </contour>
    <contour>
      <point x="329" y="923" type="curve" smooth="yes"/>
      <point x="289" y="923"/>
      <point x="230" y="890"/>
      <point x="230" y="838" type="curve" smooth="yes"/>
      <point x="230" y="797"/>
      <point x="265" y="767"/>
      <point x="314" y="767" type="curve" smooth="yes"/>
      <point x="362" y="767"/>
      <point x="413" y="804"/>
      <point x="413" y="850" type="curve" smooth="yes"/>
      <point x="413" y="891"/>
      <point x="377" y="923"/>
    </contour>
    <contour>
      <point x="355" y="679" type="line"/>
      <point x="568" y="29" type="line"/>
      <point x="538" y="7" type="line"/>
      <point x="451" y="271" type="line"/>
      <point x="164" y="211" type="line"/>
      <point x="87" y="4" type="line"/>
      <point x="54" y="22" type="line"/>
      <point x="120" y="201" type="line"/>
      <point x="72" y="191" type="line"/>
      <point x="64" y="227" type="line"/>
      <point x="137" y="241" type="line"/>
      <point x="296" y="668" type="line"/>
    </contour>
    <contour>
      <point x="180" y="251" type="line"/>
      <point x="439" y="304" type="line"/>
      <point x="327" y="646" type="line"/>
    </contour>
  </outline>
</glyph>
<glyph name="AE" format="1">
  <advance width="1039"/>
  <unicode hex="00C6"/>
  <outline>
    <contour>
      <point x="553" y="37" type="line"/>
      <point x="993" y="37" type="line"/>
      <point x="978" y="0" type="line"/>
      <point x="516" y="0" type="line"/>
      <point x="516" y="318" type="line"/>
      <point x="271" y="268" type="line"/>
      <point x="85" y="3" type="line"/>
      <point x="54" y="21" type="line"/>
      <point x="222" y="260" type="line"/>
      <point x="166" y="246" type="line"/>
      <point x="159" y="280" type="line"/>
      <point x="252" y="300" type="line"/>
      <point x="521" y="681" type="line"/>
      <point x="989" y="681" type="line"/>
      <point x="981" y="644" type="line"/>
      <point x="553" y="644" type="line"/>
      <point x="553" y="373" type="line"/>
      <point x="945" y="373" type="line"/>
      <point x="934" y="336" type="line"/>
      <point x="553" y="336" type="line"/>
    </contour>
    <contour>
      <point x="516" y="354" type="line"/>
      <point x="516" y="611" type="line"/>
      <point x="302" y="310" type="line"/>
    </contour>
  </outline>
</glyph>
<glyph name="Ccedilla" format="1">
  <advance width="621"/>
  <unicode hex="00C7"/>
  <outline>
    <contour>
      <point x="345" y="-184" type="curve" smooth="yes"/>
      <point x="379" y="-184"/>
      <point x="403" y="-158"/>
      <point x="403" y="-124" type="curve" smooth="yes"/>
      <point x="403" y="-90"/>
      <point x="379" y="-63"/>
      <point x="345" y="-63" type="curve" smooth="yes"/>
      <point x="334" y="-63"/>
      <point x="322" y="-67"/>
      <point x="314" y="-71" type="curve"/>
      <point x="293" y="-52" type="line"/>
      <point x="311" y="-1" type="line"/>
      <point x="166" y="16"/>
      <point x="53" y="137"/>
      <point x="53" y="290" type="curve" smooth="yes"/>
      <point x="53" y="451"/>
      <point x="171" y="681"/>
      <point x="347" y="681" type="curve" smooth="yes"/>
      <point x="401" y="681"/>
      <point x="458" y="661"/>
      <point x="508" y="623" type="curve"/>
      <point x="508" y="657" type="line"/>
      <point x="535" y="657" type="line"/>
      <point x="535" y="555" type="line"/>
      <point x="508" y="555" type="line"/>
      <point x="508" y="575" type="line"/>
      <point x="479" y="609"/>
      <point x="428" y="647"/>
      <point x="341" y="647" type="curve" smooth="yes"/>
      <point x="199" y="647"/>
      <point x="86" y="433"/>
      <point x="86" y="292" type="curve" smooth="yes"/>
      <point x="86" y="150"/>
      <point x="196" y="33"/>
      <point x="334" y="33" type="curve" smooth="yes"/>
      <point x="433" y="33"/>
      <point x="497" y="68"/>
      <point x="552" y="147" type="curve"/>
      <point x="575" y="124" type="line"/>
      <point x="525" y="47"/>
      <point x="428" y="-1"/>
      <point x="323" y="-1" type="curve"/>
      <point x="323" y="-40" type="line"/>
      <point x="337" y="-40" type="line" smooth="yes"/>
      <point x="389" y="-40"/>
      <point x="428" y="-73"/>
      <point x="428" y="-124" type="curve" smooth="yes"/>
      <point x="428" y="-170"/>
      <point x="391" y="-207"/>
      <point x="345" y="-207" type="curve" smooth="yes"/>
      <point x="321" y="-207"/>
      <point x="299" y="-198"/>
      <point x="284" y="-182" type="curve"/>
      <point x="300" y="-166" type="line"/>
      <point x="312" y="-175"/>
      <point x="325" y="-184"/>
    </contour>
  </outline>
</glyph>
<glyph name="Eacute" format="1">
  <advance width="601"/>
  <unicode hex="00C9"/>
  <outline>
    <contour>
      <point x="211" y="784" type="line"/>
      <point x="349" y="896" type="line"/>
      <point x="387" y="864" type="line"/>
      <point x="237" y="760" type="line"/>
    </contour>
    <contour>
      <point x="105" y="37" type="line"/>
      <point x="545" y="37" type="line"/>
      <point x="530" y="0" type="line"/>
      <point x="68" y="0" type="line"/>
      <point x="68" y="681" type="line"/>
      <point x="541" y="681" type="line"/>
      <point x="533" y="644" type="line"/>
      <point x="105" y="644" type="line"/>
      <point x="105" y="373" type="line"/>
      <point x="497" y="373" type="line"/>
      <point x="486" y="336" type="line"/>
      <point x="105" y="336" type="line"/>
    </contour>
  </outline>
</glyph>
<glyph name="Ecircumflex" format="1">
  <advance width="601"/>
  <unicode hex="00CA"/>
  <outline>
    <contour>
      <point x="198" y="743" type="line"/>
      <point x="177" y="771" type="line"/>
      <point x="317" y="884" type="line"/>
      <point x="435" y="771" type="line"/>
      <point x="413" y="745" type="line"/>
      <point x="314" y="833" type="line"/>
    </contour>
    <contour>
      <point x="105" y="37" type="line"/>
      <point x="545" y="37" type="line"/>
      <point x="530" y="0" type="line"/>
      <point x="68" y="0" type="line"/>
      <point x="68" y="681" type="line"/>
      <point x="541" y="681" type="line"/>
      <point x="533" y="644" type="line"/>
      <point x="105" y="644" type="line"/>
      <point x="105" y="373" type="line"/>
      <point x="497" y="373" type="line"/>
      <point x="486" y="336" type="line"/>
      <point x="105" y="336" type="line"/>
    </contour>
  </outline>
</glyph>
<glyph name="Edieresis" format="1">
  <advance width="601"/>
  <unicode hex="00CB"/>
  <outline>
    <contour>
      <point x="258" y="822" type="line"/>
      <point x="251" y="758" type="line"/>
      <point x="197" y="750" type="line"/>
      <point x="204" y="814" type="line"/>
    </contour>
    <contour>
      <point x="424" y="822" type="line"/>
      <point x="417" y="758" type="line"/>
      <point x="363" y="750" type="line"/>
      <point x="370" y="814" type="line"/>
    </contour>
    <contour>
      <point x="105" y="37" type="line"/>
      <point x="545" y="37" type="line"/>
      <point x="530" y="0" type="line"/>
      <point x="68" y="0" type="line"/>
      <point x="68" y="681" type="line"/>
      <point x="541" y="681" type="line"/>
      <point x="533" y="644" type="line"/>
      <point x="105" y="644" type="line"/>
      <point x="105" y="373" type="line"/>
      <point x="497" y="373" type="line"/>
      <point x="486" y="336" type="line"/>
      <point x="105" y="336" type="line"/>
    </contour>
  </outline>
</glyph>
<glyph name="Igrave" format="1">
  <advance width="427"/>
  <unicode hex="00CC"/>
  <outline>
    <contour>
      <point x="288" y="770" type="line"/>
      <point x="259" y="750" type="line"/>
      <point x="131" y="879" type="line"/>
      <point x="172" y="904" type="line"/>
    </contour>
    <contour>
      <point x="361" y="644" type="line"/>
      <point x="238" y="644" type="line"/>
      <point x="238" y="37" type="line"/>
      <point x="368" y="37" type="line"/>
      <point x="361" y="0" type="line"/>
      <point x="66" y="0" type="line"/>
      <point x="73" y="37" type="line"/>
      <point x="201" y="37" type="line"/>
      <point x="201" y="644" type="line"/>
      <point x="66" y="644" type="line"/>
      <point x="73" y="681" type="line"/>
      <point x="368" y="681" type="line"/>
    </contour>
  </outline>
</glyph>
<glyph name="Iacute" format="1">
  <advance width="427"/>
  <unicode hex="00CD"/>
  <outline>
    <contour>
      <point x="136" y="784" type="line"/>
      <point x="274" y="896" type="line"/>
      <point x="312" y="864" type="line"/>
      <point x="162" y="760" type="line"/>
    </contour>
    <contour>
      <point x="361" y="644" type="line"/>
      <point x="238" y="644" type="line"/>
      <point x="238" y="37" type="line"/>
      <point x="368" y="37" type="line"/>
      <point x="361" y="0" type="line"/>
      <point x="66" y="0" type="line"/>
      <point x="73" y="37" type="line"/>
      <point x="201" y="37" type="line"/>
      <point x="201" y="644" type="line"/>
      <point x="66" y="644" type="line"/>
      <point x="73" y="681" type="line"/>
      <point x="368" y="681" type="line"/>
    </contour>
  </outline>
</glyph>
<glyph name="Idieresis" format="1">
  <advance width="427"/>
  <unicode hex="00CF"/>
  <outline>
    <contour>
      <point x="171" y="822" type="line"/>
      <point x="164" y="758" type="line"/>
      <point x="110" y="750" type="line"/>
      <point x="116" y="814" type="line"/>
    </contour>
    <contour>
      <point x="337" y="822" type="line"/>
      <point x="330" y="758" type="line"/>
      <point x="276" y="750" type="line"/>
      <point x="282" y="814" type="line"/>
    </contour>
    <contour>
      <point x="361" y="644" type="line"/>
      <point x="238" y="644" type="line"/>
      <point x="238" y="37" type="line"/>
      <point x="368" y="37" type="line"/>
      <point x="361" y="0" type="line"/>
      <point x="66" y="0" type="line"/>
      <point x="73" y="37" type="line"/>
      <point x="201" y="37" type="line"/>
      <point x="201" y="644" type="line"/>
      <point x="66" y="644" type="line"/>
      <point x="73" y="681" type="line"/>
      <point x="368" y="681" type="line"/>
    </contour>
  </outline>
</glyph>
<glyph name="Oslash" format="1">
  <advance width="650"/>
  <unicode hex="00D8"/>
  <outline>
    <contour>
      <point x="538" y="721" type="line"/>
      <point x="489" y="633" type="line"/>
      <point x="566" y="572"/>
      <point x="598" y="467"/>
      <point x="598" y="369" type="curve" smooth="yes"/>
      <point x="598" y="168"/>
      <point x="464" y="-1"/>
      <point x="308" y="-1" type="curve" smooth="yes"/>
      <point x="262" y="-1"/>
      <point x="212" y="19"/>
      <point x="167" y="53" type="curve"/>
      <point x="120" y="-31" type="line"/>
      <point x="92" y="-13" type="line"/>
      <point x="142" y="77" type="line"/>
      <point x="91" y="139"/>
      <point x="62" y="223"/>
      <point x="62" y="311" type="curve" smooth="yes"/>
      <point x="62" y="519"/>
      <point x="189" y="683"/>
      <point x="352" y="683" type="curve" smooth="yes"/>
      <point x="387" y="683"/>
      <point x="424" y="673"/>
      <point x="462" y="651" type="curve"/>
      <point x="509" y="738" type="line"/>
    </contour>
    <contour>
      <point x="160" y="107" type="curve"/>
      <point x="444" y="620" type="line"/>
      <point x="410" y="640"/>
      <point x="377" y="650"/>
      <point x="344" y="650" type="curve" smooth="yes"/>
      <point x="214" y="650"/>
      <point x="96" y="501"/>
      <point x="96" y="314" type="curve" smooth="yes"/>
      <point x="96" y="235"/>
      <point x="118" y="163"/>
    </contour>
    <contour>
      <point x="308" y="32" type="curve" smooth="yes"/>
      <point x="466" y="32"/>
      <point x="564" y="219"/>
      <point x="564" y="365" type="curve" smooth="yes"/>
      <point x="564" y="447"/>
      <point x="538" y="543"/>
      <point x="471" y="600" type="curve"/>
      <point x="183" y="82" type="line"/>
      <point x="222" y="49"/>
      <point x="264" y="32"/>
    </contour>
  </outline>
</glyph>
<glyph name="Udieresis" format="1">
  <advance width="674"/>
  <unicode hex="00DC"/>
  <outline>
    <contour>
      <point x="301" y="822" type="line"/>
      <point x="294" y="758" type="line"/>
      <point x="240" y="750" type="line"/>
      <point x="246" y="814" type="line"/>
    </contour>
    <contour>
      <point x="466" y="822" type="line"/>
      <point x="459" y="758" type="line"/>
      <point x="405" y="750" type="line"/>
      <point x="411" y="814" type="line"/>
    </contour>
    <contour>
      <point x="342" y="0" type="curve" smooth="yes"/>
      <point x="107" y="0"/>
      <point x="68" y="199"/>
      <point x="68" y="463" type="curve" smooth="yes"/>
      <point x="68" y="532"/>
      <point x="69" y="635"/>
      <point x="70" y="671" type="curve"/>
      <point x="107" y="678" type="line"/>
      <point x="106" y="655"/>
      <point x="105" y="540"/>
      <point x="105" y="453" type="curve" smooth="yes"/>
      <point x="105" y="233"/>
      <point x="130" y="30"/>
      <point x="342" y="30" type="curve" smooth="yes"/>
      <point x="562" y="30"/>
      <point x="579" y="253"/>
      <point x="579" y="434" type="curve" smooth="yes"/>
      <point x="579" y="513"/>
      <point x="578" y="624"/>
      <point x="577" y="670" type="curve"/>
      <point x="615" y="678" type="line"/>
      <point x="616" y="653"/>
      <point x="616" y="556"/>
      <point x="616" y="480" type="curve" smooth="yes"/>
      <point x="616" y="247"/>
      <point x="597" y="0"/>
    </contour>
  </outline>
</glyph>
<glyph name="Yacute" format="1">
  <advance width="618"/>
  <unicode hex="00DD"/>
  <outline>
    <contour>
      <point x="250" y="784" type="line"/>
      <point x="388" y="896" type="line"/>
      <point x="426" y="864" type="line"/>
      <point x="275" y="760" type="line"/>
    </contour>
    <contour>
      <point x="322" y="243" type="line"/>
      <point x="579" y="677" type="line"/>
      <point x="619" y="677" type="line"/>
      <point x="217" y="0" type="line"/>
      <point x="178" y="0" type="line"/>
      <point x="301" y="210" type="line"/>
      <point x="29" y="677" type="line"/>
      <point x="68" y="677" type="line"/>
    </contour>
  </outline>
</glyph>
<glyph name="germandbls" format="1">
  <advance width="515"/>
  <unicode hex="00DF"/>
  <outline>
    <contour>
      <point x="342" y="362" type="curve"/>
      <point x="435" y="338"/>
      <point x="491" y="259"/>
      <point x="491" y="172" type="curve" smooth="yes"/>
      <point x="491" y="66"/>
      <point x="403" y="-25"/>
      <point x="296" y="-25" type="curve" smooth="yes"/>
      <point x="266" y="-25"/>
      <point x="239" y="-19"/>
      <point x="194" y="4" type="curve"/>
      <point x="209" y="33" type="line"/>
      <point x="245" y="15"/>
      <point x="272" y="8"/>
      <point x="296" y="8" type="curve" smooth="yes"/>
      <point x="382" y="8"/>
      <point x="456" y="82"/>
      <point x="456" y="171" type="curve" smooth="yes"/>
      <point x="456" y="251"/>
      <point x="394" y="333"/>
      <point x="299" y="333" type="curve" smooth="yes"/>
      <point x="278" y="333"/>
      <point x="262" y="331"/>
      <point x="234" y="325" type="curve"/>
      <point x="245" y="359" type="line"/>
      <point x="339" y="376"/>
      <point x="369" y="433"/>
      <point x="369" y="486" type="curve" smooth="yes"/>
      <point x="369" y="555"/>
      <point x="314" y="612"/>
      <point x="244" y="612" type="curve" smooth="yes"/>
      <point x="175" y="612"/>
      <point x="118" y="555"/>
      <point x="118" y="486" type="curve" smooth="yes"/>
      <point x="118" y="23" type="line"/>
      <point x="81" y="-6" type="line"/>
      <point x="81" y="486" type="line" smooth="yes"/>
      <point x="81" y="574"/>
      <point x="156" y="646"/>
      <point x="244" y="646" type="curve" smooth="yes"/>
      <point x="331" y="646"/>
      <point x="402" y="574"/>
      <point x="402" y="486" type="curve" smooth="yes"/>
      <point x="402" y="444"/>
      <point x="381" y="392"/>
    </contour>
  </outline>
</glyph>
<glyph name="acircumflex" format="1">
  <advance width="494"/>
  <unicode hex="00E2"/>
  <outline>
    <contour>
      <point x="173" y="575" type="line"/>
      <point x="151" y="603" type="line"/>
      <point x="294" y="718" type="line"/>
      <point x="414" y="603" type="line"/>
      <point x="391" y="577" type="line"/>
      <point x="291" y="667" type="line"/>
    </contour>
    <contour>
      <point x="437" y="475" type="curve"/>
      <point x="437" y="10" type="line"/>
      <point x="399" y="2" type="line"/>
      <point x="399" y="65" type="line"/>
      <point x="357" y="39"/>
      <point x="293" y="7"/>
      <point x="238" y="7" type="curve" smooth="yes"/>
      <point x="131" y="7"/>
      <point x="52" y="95"/>
      <point x="52" y="222" type="curve" smooth="yes"/>
      <point x="52" y="325"/>
      <point x="116" y="513"/>
      <point x="289" y="513" type="curve" smooth="yes"/>
      <point x="342" y="513"/>
      <point x="392" y="497"/>
    </contour>
    <contour>
      <point x="236" y="44" type="curve"/>
      <point x="301" y="44"/>
      <point x="372" y="91"/>
      <point x="397" y="109" type="curve"/>
      <point x="402" y="450" type="line"/>
      <point x="378" y="459"/>
      <point x="329" y="477"/>
      <point x="294" y="477" type="curve" smooth="yes"/>
      <point x="144" y="477"/>
      <point x="91" y="316"/>
      <point x="91" y="224" type="curve" smooth="yes"/>
      <point x="91" y="144"/>
      <point x="129" y="46"/>
    </contour>
  </outline>
</glyph>
<glyph name="atilde" format="1">
  <advance width="503"/>
  <unicode hex="00E3"/>
  <outline>
    <contour>
      <point x="437" y="475" type="curve"/>
      <point x="437" y="10" type="line"/>
      <point x="399" y="2" type="line"/>
      <point x="399" y="65" type="line"/>
      <point x="357" y="39"/>
      <point x="293" y="7"/>
      <point x="238" y="7" type="curve" smooth="yes"/>
      <point x="131" y="7"/>
      <point x="52" y="95"/>
      <point x="52" y="222" type="curve" smooth="yes"/>
      <point x="52" y="325"/>
      <point x="116" y="513"/>
      <point x="289" y="513" type="curve" smooth="yes"/>
      <point x="342" y="513"/>
      <point x="392" y="497"/>
    </contour>
    <contour>
      <point x="236" y="44" type="curve"/>
      <point x="301" y="44"/>
      <point x="372" y="91"/>
      <point x="397" y="109" type="curve"/>
      <point x="402" y="450" type="line"/>
      <point x="378" y="459"/>
      <point x="329" y="477"/>
      <point x="294" y="477" type="curve" smooth="yes"/>
      <point x="144" y="477"/>
      <point x="91" y="316"/>
      <point x="91" y="224" type="curve" smooth="yes"/>
      <point x="91" y="144"/>
      <point x="129" y="46"/>
    </contour>
    <contour>
      <point x="280" y="656" type="curve" smooth="yes"/>
      <point x="306" y="617"/>
      <point x="317" y="610"/>
      <point x="338" y="610" type="curve" smooth="yes"/>
      <point x="376" y="610"/>
      <point x="400" y="657"/>
      <point x="411" y="691" type="curve"/>
      <point x="442" y="681" type="line"/>
      <point x="425" y="625"/>
      <point x="382" y="579"/>
      <point x="338" y="579" type="curve" smooth="yes"/>
      <point x="297" y="579"/>
      <point x="274" y="610"/>
      <point x="255" y="637" type="curve" smooth="yes"/>
      <point x="229" y="674"/>
      <point x="218" y="680"/>
      <point x="198" y="680" type="curve" smooth="yes"/>
      <point x="164" y="680"/>
      <point x="138" y="638"/>
      <point x="128" y="607" type="curve"/>
      <point x="98" y="617" type="line"/>
      <point x="114" y="661"/>
      <point x="146" y="712"/>
      <point x="198" y="712" type="curve" smooth="yes"/>
      <point x="240" y="712"/>
      <point x="262" y="681"/>
    </contour>
  </outline>
</glyph>
<glyph name="ae" format="1">
  <advance width="854"/>
  <unicode hex="00E6"/>
  <outline>
    <contour>
      <point x="641" y="0" type="curve" smooth="yes"/>
      <point x="554" y="0"/>
      <point x="479" y="46"/>
      <point x="437" y="117" type="curve"/>
      <point x="437" y="10" type="line"/>
      <point x="399" y="2" type="line"/>
      <point x="399" y="65" type="line"/>
      <point x="357" y="39"/>
      <point x="293" y="7"/>
      <point x="238" y="7" type="curve" smooth="yes"/>
      <point x="131" y="7"/>
      <point x="52" y="95"/>
      <point x="52" y="222" type="curve" smooth="yes"/>
      <point x="52" y="325"/>
      <point x="116" y="513"/>
      <point x="289" y="513" type="curve" smooth="yes"/>
      <point x="342" y="513"/>
      <point x="392" y="497"/>
      <point x="437" y="475" type="curve"/>
      <point x="437" y="385" type="line"/>
      <point x="479" y="455"/>
      <point x="554" y="502"/>
      <point x="641" y="502" type="curve" smooth="yes"/>
      <point x="725" y="502"/>
      <point x="795" y="441"/>
      <point x="820" y="365" type="curve"/>
      <point x="451" y="160" type="line"/>
      <point x="489" y="84"/>
      <point x="560" y="32"/>
      <point x="641" y="32" type="curve" smooth="yes"/>
      <point x="693" y="32"/>
      <point x="743" y="54"/>
      <point x="782" y="91" type="curve"/>
      <point x="805" y="68" type="line"/>
      <point x="759" y="25"/>
      <point x="701" y="0"/>
    </contour>
    <contour>
      <point x="236" y="44" type="curve"/>
      <point x="301" y="44"/>
      <point x="372" y="91"/>
      <point x="397" y="109" type="curve"/>
      <point x="402" y="450" type="line"/>
      <point x="378" y="459"/>
      <point x="329" y="477"/>
      <point x="294" y="477" type="curve" smooth="yes"/>
      <point x="144" y="477"/>
      <point x="91" y="316"/>
      <point x="91" y="224" type="curve" smooth="yes"/>
      <point x="91" y="144"/>
      <point x="129" y="46"/>
    </contour>
    <contour>
      <point x="643" y="470" type="curve" smooth="yes"/>
      <point x="523" y="470"/>
      <point x="433" y="367"/>
      <point x="433" y="251" type="curve" smooth="yes"/>
      <point x="433" y="233"/>
      <point x="436" y="214"/>
      <point x="442" y="190" type="curve"/>
      <point x="780" y="379" type="line"/>
      <point x="748" y="436"/>
      <point x="696" y="470"/>
    </contour>
  </outline>
</glyph>
<glyph name="ccedilla" format="1">
  <advance width="497"/>
  <unicode hex="00E7"/>
  <outline>
    <contour>
      <point x="278" y="33" type="curve" smooth="yes"/>
      <point x="342" y="36"/>
      <point x="397" y="67"/>
      <point x="427" y="115" type="curve"/>
      <point x="452" y="90" type="line"/>
      <point x="415" y="35"/>
      <point x="353" y="3"/>
      <point x="279" y="0" type="curve"/>
      <point x="249" y="0" type="line"/>
      <point x="248" y="-41" type="line"/>
      <point x="262" y="-41" type="line" smooth="yes"/>
      <point x="315" y="-41"/>
      <point x="354" y="-74"/>
      <point x="354" y="-125" type="curve" smooth="yes"/>
      <point x="354" y="-172"/>
      <point x="317" y="-209"/>
      <point x="270" y="-209" type="curve" smooth="yes"/>
      <point x="246" y="-209"/>
      <point x="224" y="-200"/>
      <point x="208" y="-184" type="curve"/>
      <point x="225" y="-168" type="line"/>
      <point x="236" y="-177"/>
      <point x="249" y="-186"/>
      <point x="270" y="-186" type="curve" smooth="yes"/>
      <point x="304" y="-186"/>
      <point x="331" y="-159"/>
      <point x="331" y="-125" type="curve" smooth="yes"/>
      <point x="331" y="-91"/>
      <point x="304" y="-64"/>
      <point x="270" y="-64" type="curve" smooth="yes"/>
      <point x="259" y="-64"/>
      <point x="247" y="-68"/>
      <point x="239" y="-72" type="curve"/>
      <point x="218" y="-52" type="line"/>
      <point x="237" y="2" type="line"/>
      <point x="137" y="17"/>
      <point x="53" y="106"/>
      <point x="53" y="215" type="curve" smooth="yes"/>
      <point x="53" y="328"/>
      <point x="140" y="502"/>
      <point x="275" y="502" type="curve" smooth="yes"/>
      <point x="333" y="502"/>
      <point x="386" y="478"/>
      <point x="420" y="438" type="curve"/>
      <point x="394" y="413" type="line"/>
      <point x="367" y="450"/>
      <point x="325" y="469"/>
      <point x="277" y="469" type="curve" smooth="yes"/>
      <point x="168" y="469"/>
      <point x="88" y="316"/>
      <point x="88" y="217" type="curve" smooth="yes"/>
      <point x="88" y="65.6697"/>
      <point x="216.921" y="32.9089"/>
      <point x="273.021" y="32.9089" type="curve" smooth="yes"/>
      <point x="274.752" y="32.9089"/>
      <point x="276.414" y="32.9401"/>
    </contour>
  </outline>
</glyph>
<glyph name="ecircumflex" format="1">
  <advance width="517"/>
  <unicode hex="00EA"/>
  <outline>
    <contour>
      <point x="156" y="575" type="line"/>
      <point x="134" y="603" type="line"/>
      <point x="276" y="718" type="line"/>
      <point x="396" y="603" type="line"/>
      <point x="373" y="577" type="line"/>
      <point x="273" y="667" type="line"/>
    </contour>
    <contour>
      <point x="294" y="0" type="curve" smooth="yes"/>
      <point x="160" y="0"/>
      <point x="52" y="112"/>
      <point x="52" y="251" type="curve" smooth="yes"/>
      <point x="52" y="388"/>
      <point x="159" y="502"/>
      <point x="294" y="502" type="curve" smooth="yes"/>
      <point x="378" y="502"/>
      <point x="448" y="441"/>
      <point x="473" y="365" type="curve"/>
      <point x="104" y="160" type="line"/>
      <point x="142" y="84"/>
      <point x="213" y="32"/>
      <point x="294" y="32" type="curve" smooth="yes"/>
      <point x="346" y="32"/>
      <point x="396" y="54"/>
      <point x="435" y="91" type="curve"/>
      <point x="458" y="68" type="line"/>
      <point x="412" y="25"/>
      <point x="354" y="0"/>
    </contour>
    <contour>
      <point x="294" y="470" type="curve" smooth="yes"/>
      <point x="174" y="470"/>
      <point x="84" y="367"/>
      <point x="84" y="251" type="curve" smooth="yes"/>
      <point x="84" y="233"/>
      <point x="87" y="214"/>
      <point x="93" y="190" type="curve"/>
      <point x="431" y="379" type="line"/>
      <point x="399" y="436"/>
      <point x="347" y="470"/>
    </contour>
  </outline>
</glyph>
<glyph name="idieresis" format="1">
  <advance width="236"/>
  <unicode hex="00EF"/>
  <outline>
    <contour>
      <point x="80" y="669" type="line"/>
      <point x="72" y="604" type="line"/>
      <point x="18" y="596" type="line"/>
      <point x="25" y="660" type="line"/>
    </contour>
    <contour>
      <point x="246" y="669" type="line"/>
      <point x="239" y="604" type="line"/>
      <point x="185" y="596" type="line"/>
      <point x="191" y="660" type="line"/>
    </contour>
    <contour>
      <point x="99" y="493" type="line"/>
      <point x="140" y="498" type="line"/>
      <point x="140" y="9" type="line"/>
      <point x="99" y="2" type="line"/>
    </contour>
  </outline>
</glyph>
<glyph name="eth" format="1">
  <advance width="472"/>
  <unicode hex="00F0"/>
  <outline>
    <contour>
      <point x="260" y="599" type="curve"/>
      <point x="342" y="511"/>
      <point x="430" y="383"/>
      <point x="430" y="255" type="curve" smooth="yes"/>
      <point x="430" y="128"/>
      <point x="348" y="0"/>
      <point x="214" y="0" type="curve" smooth="yes"/>
      <point x="123" y="0"/>
      <point x="52" y="71"/>
      <point x="52" y="174" type="curve" smooth="yes"/>
      <point x="52" y="326"/>
      <point x="171" y="427"/>
      <point x="345" y="433" type="curve"/>
      <point x="309" y="494"/>
      <point x="267" y="544"/>
      <point x="232" y="583" type="curve"/>
      <point x="183" y="556"/>
      <point x="132" y="524"/>
      <point x="110" y="509" type="curve"/>
      <point x="99" y="528" type="line"/>
      <point x="133" y="550"/>
      <point x="183" y="579"/>
      <point x="216" y="599" type="curve"/>
      <point x="195" y="620"/>
      <point x="176" y="637"/>
      <point x="166" y="647" type="curve"/>
      <point x="186" y="672" type="line"/>
      <point x="246" y="614" type="line"/>
      <point x="286" y="636"/>
      <point x="336" y="663"/>
      <point x="370" y="678" type="curve"/>
      <point x="377" y="659" type="line"/>
      <point x="346" y="646"/>
      <point x="291" y="619"/>
    </contour>
    <contour>
      <point x="214" y="32" type="curve" smooth="yes"/>
      <point x="330" y="32"/>
      <point x="397" y="149"/>
      <point x="397" y="258" type="curve" smooth="yes"/>
      <point x="397" y="304"/>
      <point x="384" y="353"/>
      <point x="361" y="401" type="curve"/>
      <point x="205" y="401"/>
      <point x="85" y="333"/>
      <point x="85" y="173" type="curve" smooth="yes"/>
      <point x="85" y="86"/>
      <point x="140" y="32"/>
    </contour>
  </outline>
</glyph>
<glyph name="ntilde" format="1">
  <advance width="526"/>
  <unicode hex="00F1"/>
  <outline>
    <contour>
      <point x="105" y="500" type="line"/>
      <point x="105" y="282" type="line"/>
      <point x="129" y="383"/>
      <point x="217" y="501"/>
      <point x="327" y="501" type="curve" smooth="yes"/>
      <point x="392" y="501"/>
      <point x="434" y="465"/>
      <point x="452" y="397" type="curve"/>
      <point x="466" y="333"/>
      <point x="469" y="244"/>
      <point x="469" y="109" type="curve" smooth="yes"/>
      <point x="469" y="10" type="line"/>
      <point x="433" y="3" type="line"/>
      <point x="433" y="144" type="line" smooth="yes"/>
      <point x="433" y="246"/>
      <point x="431" y="333"/>
      <point x="417" y="386" type="curve"/>
      <point x="404" y="444"/>
      <point x="375" y="467"/>
      <point x="324" y="467" type="curve" smooth="yes"/>
      <point x="274" y="467"/>
      <point x="218" y="445"/>
      <point x="160" y="337" type="curve" smooth="yes"/>
      <point x="125" y="272"/>
      <point x="106" y="202"/>
      <point x="105" y="126" type="curve" smooth="yes"/>
      <point x="104" y="10" type="line"/>
      <point x="68" y="2" type="line"/>
      <point x="68" y="493" type="line"/>
    </contour>
    <contour>
      <point x="302" y="656" type="curve" smooth="yes"/>
      <point x="328" y="617"/>
      <point x="339" y="610"/>
      <point x="360" y="610" type="curve" smooth="yes"/>
      <point x="398" y="610"/>
      <point x="422" y="657"/>
      <point x="433" y="691" type="curve"/>
      <point x="464" y="681" type="line"/>
      <point x="447" y="625"/>
      <point x="404" y="579"/>
      <point x="360" y="579" type="curve" smooth="yes"/>
      <point x="319" y="579"/>
      <point x="296" y="610"/>
      <point x="277" y="637" type="curve" smooth="yes"/>
      <point x="251" y="674"/>
      <point x="240" y="680"/>
      <point x="220" y="680" type="curve" smooth="yes"/>
      <point x="186" y="680"/>
      <point x="160" y="638"/>
      <point x="150" y="607" type="curve"/>
      <point x="120" y="617" type="line"/>
      <point x="136" y="661"/>
      <point x="168" y="712"/>
      <point x="220" y="712" type="curve" smooth="yes"/>
      <point x="262" y="712"/>
      <point x="284" y="681"/>
    </contour>
  </outline>
</glyph>
<glyph name="otilde" format="1">
  <advance width="525"/>
  <unicode hex="00F5"/>
  <outline>
    <contour>
      <point x="252" y="0" type="curve" smooth="yes"/>
      <point x="138" y="0"/>
      <point x="52" y="107"/>
      <point x="52" y="233" type="curve" smooth="yes"/>
      <point x="52" y="380"/>
      <point x="153" y="500"/>
      <point x="284" y="500" type="curve" smooth="yes"/>
      <point x="397" y="500"/>
      <point x="484" y="395"/>
      <point x="484" y="271" type="curve" smooth="yes"/>
      <point x="484" y="123"/>
      <point x="378" y="0"/>
    </contour>
    <contour>
      <point x="279" y="467" type="curve" smooth="yes"/>
      <point x="177" y="467"/>
      <point x="91" y="358"/>
      <point x="91" y="231" type="curve" smooth="yes"/>
      <point x="91" y="123"/>
      <point x="157" y="32"/>
      <point x="254" y="32" type="curve" smooth="yes"/>
      <point x="354" y="32"/>
      <point x="446" y="140"/>
      <point x="446" y="266" type="curve" smooth="yes"/>
      <point x="446" y="375"/>
      <point x="372" y="467"/>
    </contour>
    <contour>
      <point x="302" y="656" type="curve" smooth="yes"/>
      <point x="328" y="617"/>
      <point x="339" y="610"/>
      <point x="360" y="610" type="curve" smooth="yes"/>
      <point x="398" y="610"/>
      <point x="422" y="657"/>
      <point x="433" y="691" type="curve"/>
      <point x="464" y="681" type="line"/>
      <point x="447" y="625"/>
      <point x="404" y="579"/>
      <point x="360" y="579" type="curve" smooth="yes"/>
      <point x="319" y="579"/>
      <point x="296" y="610"/>
      <point x="277" y="637" type="curve" smooth="yes"/>
      <point x="251" y="674"/>
      <point x="240" y="680"/>
      <point x="220" y="680" type="curve" smooth="yes"/>
      <point x="186" y="680"/>
      <point x="160" y="638"/>
      <point x="150" y="607" type="curve"/>
      <point x="120" y="617" type="line"/>
      <point x="136" y="661"/>
      <point x="168" y="712"/>
      <point x="220" y="712" type="curve" smooth="yes"/>
      <point x="262" y="712"/>
      <point x="284" y="681"/>
    </contour>
  </outline>
</glyph>
<glyph name="odieresis" format="1">
  <advance width="525"/>
  <unicode hex="00F6"/>
  <outline>
    <contour>
      <point x="244" y="669" type="line"/>
      <point x="236" y="604" type="line"/>
      <point x="182" y="596" type="line"/>
      <point x="188" y="660" type="line"/>
    </contour>
    <contour>
      <point x="410" y="669" type="line"/>
      <point x="403" y="604" type="line"/>
      <point x="349" y="596" type="line"/>
      <point x="355" y="660" type="line"/>
    </contour>
    <contour>
      <point x="252" y="0" type="curve" smooth="yes"/>
      <point x="138" y="0"/>
      <point x="52" y="107"/>
      <point x="52" y="233" type="curve" smooth="yes"/>
      <point x="52" y="380"/>
      <point x="153" y="500"/>
      <point x="284" y="500" type="curve" smooth="yes"/>
      <point x="397" y="500"/>
      <point x="484" y="395"/>
      <point x="484" y="271" type="curve" smooth="yes"/>
      <point x="484" y="123"/>
      <point x="378" y="0"/>
    </contour>
    <contour>
      <point x="279" y="467" type="curve" smooth="yes"/>
      <point x="177" y="467"/>
      <point x="91" y="358"/>
      <point x="91" y="231" type="curve" smooth="yes"/>
      <point x="91" y="123"/>
      <point x="157" y="32"/>
      <point x="254" y="32" type="curve" smooth="yes"/>
      <point x="354" y="32"/>
      <point x="446" y="140"/>
      <point x="446" y="266" type="curve" smooth="yes"/>
      <point x="446" y="375"/>
      <point x="372" y="467"/>
    </contour>
  </outline>
</glyph>
<glyph name="divide" format="1">
  <advance width="397"/>
  <unicode hex="00F7"/>
  <outline>
    <contour>
      <point x="230" y="382" type="line"/>
      <point x="227" y="337" type="line"/>
      <point x="188" y="331" type="line"/>
      <point x="193" y="376" type="line"/>
    </contour>
    <contour>
      <point x="215" y="191" type="line"/>
      <point x="212" y="145" type="line"/>
      <point x="172" y="139" type="line"/>
      <point x="178" y="184" type="line"/>
    </contour>
    <contour>
      <point x="60" y="244" type="line"/>
      <point x="67" y="277" type="line"/>
      <point x="346" y="277" type="line"/>
      <point x="339" y="244" type="line"/>
    </contour>
  </outline>
</glyph>
<glyph name="oslash" format="1">
  <advance width="525"/>
  <unicode hex="00F8"/>
  <outline>
    <contour>
      <point x="252" y="0" type="curve" smooth="yes"/>
      <point x="214" y="0"/>
      <point x="180" y="12"/>
      <point x="150" y="32" type="curve"/>
      <point x="113" y="-32" type="line"/>
      <point x="87" y="-16" type="line"/>
      <point x="126" y="51" type="line"/>
      <point x="80" y="94"/>
      <point x="52" y="161"/>
      <point x="52" y="233" type="curve" smooth="yes"/>
      <point x="52" y="380"/>
      <point x="153" y="500"/>
      <point x="284" y="500" type="curve" smooth="yes"/>
      <point x="316" y="500"/>
      <point x="347" y="491"/>
      <point x="374" y="476" type="curve"/>
      <point x="413" y="543" type="line"/>
      <point x="440" y="526" type="line"/>
      <point x="400" y="457" type="line"/>
      <point x="451" y="415"/>
      <point x="484" y="347"/>
      <point x="484" y="271" type="curve" smooth="yes"/>
      <point x="484" y="123"/>
      <point x="378" y="0"/>
    </contour>
    <contour>
      <point x="446" y="266" type="curve" smooth="yes"/>
      <point x="446" y="330"/>
      <point x="420" y="388"/>
      <point x="381" y="425" type="curve"/>
      <point x="167" y="61" type="line"/>
      <point x="192" y="43"/>
      <point x="221" y="32"/>
      <point x="254" y="32" type="curve" smooth="yes"/>
      <point x="354" y="32"/>
      <point x="446" y="140"/>
    </contour>
    <contour>
      <point x="279" y="467" type="curve" smooth="yes"/>
      <point x="177" y="467"/>
      <point x="91" y="358"/>
      <point x="91" y="231" type="curve" smooth="yes"/>
      <point x="91" y="172"/>
      <point x="110" y="119"/>
      <point x="143" y="82" type="curve"/>
      <point x="355" y="444" type="line"/>
      <point x="332" y="458"/>
      <point x="306" y="467"/>
    </contour>
  </outline>
</glyph>
<glyph name="thorn" format="1">
  <advance width="518"/>
  <unicode hex="00FE"/>
  <outline>
    <contour>
      <point x="305" y="488" type="curve" smooth="yes"/>
      <point x="435" y="488"/>
      <point x="477" y="371"/>
      <point x="477" y="268" type="curve" smooth="yes"/>
      <point x="477" y="215"/>
      <point x="470" y="0"/>
      <point x="259" y="0" type="curve" smooth="yes"/>
      <point x="206" y="0"/>
      <point x="144" y="19"/>
      <point x="105" y="34" type="curve"/>
      <point x="105" y="-191" type="line"/>
      <point x="67" y="-183" type="line"/>
      <point x="67" y="688" type="line"/>
      <point x="105" y="697" type="line"/>
      <point x="105" y="381" type="line"/>
      <point x="147" y="440"/>
      <point x="225" y="488"/>
    </contour>
    <contour>
      <point x="251" y="35" type="curve" smooth="yes"/>
      <point x="389" y="35"/>
      <point x="440" y="129"/>
      <point x="440" y="268" type="curve" smooth="yes"/>
      <point x="440" y="335"/>
      <point x="415" y="451"/>
      <point x="309" y="451" type="curve" smooth="yes"/>
      <point x="191" y="451"/>
      <point x="105" y="360"/>
      <point x="105" y="282" type="curve" smooth="yes"/>
      <point x="105" y="73" type="line"/>
      <point x="127" y="62"/>
      <point x="189" y="35"/>
    </contour>
  </outline>
</glyph>
<glyph name="abreve" format="1">
  <advance width="494"/>
  <unicode hex="0103"/>
  <outline>
    <contour>
      <point x="437" y="475" type="curve"/>
      <point x="437" y="10" type="line"/>
      <point x="399" y="2" type="line"/>
      <point x="399" y="65" type="line"/>
      <point x="357" y="39"/>
      <point x="293" y="7"/>
      <point x="238" y="7" type="curve" smooth="yes"/>
      <point x="131" y="7"/>
      <point x="52" y="95"/>
      <point x="52" y="222" type="curve" smooth="yes"/>
      <point x="52" y="325"/>
      <point x="116" y="513"/>
      <point x="289" y="513" type="curve" smooth="yes"/>
      <point x="342" y="513"/>
      <point x="392" y="497"/>
    </contour>
    <contour>
      <point x="236" y="44" type="curve"/>
      <point x="301" y="44"/>
      <point x="372" y="91"/>
      <point x="397" y="109" type="curve"/>
      <point x="402" y="450" type="line"/>
      <point x="378" y="459"/>
      <point x="329" y="477"/>
      <point x="294" y="477" type="curve" smooth="yes"/>
      <point x="144" y="477"/>
      <point x="91" y="316"/>
      <point x="91" y="224" type="curve" smooth="yes"/>
      <point x="91" y="144"/>
      <point x="129" y="46"/>
    </contour>
    <contour>
      <point x="284" y="609" type="curve" smooth="yes"/>
      <point x="337" y="609"/>
      <point x="385" y="634"/>
      <point x="405" y="683" type="curve"/>
      <point x="423" y="666" type="line"/>
      <point x="402" y="617"/>
      <point x="345" y="582"/>
      <point x="286" y="582" type="curve" smooth="yes"/>
      <point x="220" y="582"/>
      <point x="166" y="614"/>
      <point x="141" y="662" type="curve"/>
      <point x="157" y="679" type="line"/>
      <point x="195" y="621"/>
      <point x="245" y="609"/>
    </contour>
  </outline>
</glyph>
<glyph name="Aogonek" format="1">
  <advance width="627"/>
  <unicode hex="0104"/>
  <outline>
    <contour>
      <point x="533" y="22" type="curve"/>
      <point x="451" y="271" type="line"/>
      <point x="164" y="211" type="line"/>
      <point x="87" y="4" type="line"/>
      <point x="54" y="22" type="line"/>
      <point x="120" y="201" type="line"/>
      <point x="72" y="191" type="line"/>
      <point x="64" y="227" type="line"/>
      <point x="137" y="241" type="line"/>
      <point x="296" y="668" type="line"/>
      <point x="355" y="679" type="line"/>
      <point x="573" y="14" type="line"/>
      <point x="533" y="-15" type="line" smooth="yes"/>
      <point x="505" y="-36"/>
      <point x="467" y="-63"/>
      <point x="467" y="-113" type="curve" smooth="yes"/>
      <point x="467" y="-152"/>
      <point x="497" y="-177"/>
      <point x="535" y="-177" type="curve" smooth="yes"/>
      <point x="570" y="-177"/>
      <point x="586" y="-166"/>
      <point x="610" y="-149" type="curve"/>
      <point x="627" y="-172" type="line"/>
      <point x="609" y="-191"/>
      <point x="572" y="-209"/>
      <point x="535" y="-209" type="curve" smooth="yes"/>
      <point x="478" y="-209"/>
      <point x="436" y="-168"/>
      <point x="436" y="-112" type="curve" smooth="yes"/>
      <point x="436" y="-52"/>
      <point x="490" y="-2"/>
    </contour>
    <contour>
      <point x="180" y="251" type="line"/>
      <point x="439" y="304" type="line"/>
      <point x="327" y="646" type="line"/>
    </contour>
  </outline>
</glyph>
<glyph name="Dcaron" format="1">
  <advance width="606"/>
  <unicode hex="010E"/>
  <outline>
    <contour>
      <point x="384" y="884" type="line"/>
      <point x="406" y="854" type="line"/>
      <point x="265" y="743" type="line"/>
      <point x="147" y="855" type="line"/>
      <point x="171" y="883" type="line"/>
      <point x="268" y="792" type="line"/>
    </contour>
    <contour>
      <point x="68" y="-1" type="curve"/>
      <point x="68" y="680" type="line"/>
      <point x="84" y="680" type="line" smooth="yes"/>
      <point x="204" y="680"/>
      <point x="291" y="656"/>
      <point x="352" y="627" type="curve" smooth="yes"/>
      <point x="483" y="566"/>
      <point x="553" y="452"/>
      <point x="553" y="300" type="curve" smooth="yes"/>
      <point x="553" y="98"/>
      <point x="427" y="-15"/>
      <point x="204" y="-15" type="curve" smooth="yes"/>
      <point x="170" y="-15"/>
      <point x="109" y="-10"/>
    </contour>
    <contour>
      <point x="103" y="646" type="curve"/>
      <point x="103" y="27" type="line"/>
      <point x="125" y="23"/>
      <point x="162" y="20"/>
      <point x="204" y="20" type="curve" smooth="yes"/>
      <point x="261" y="20"/>
      <point x="344" y="29"/>
      <point x="410" y="70" type="curve"/>
      <point x="481" y="116"/>
      <point x="518" y="194"/>
      <point x="518" y="300" type="curve" smooth="yes"/>
      <point x="518" y="439"/>
      <point x="457" y="538"/>
      <point x="335" y="595" type="curve"/>
      <point x="250" y="636"/>
      <point x="149" y="645"/>
    </contour>
  </outline>
</glyph>
<glyph name="dcaron" format="1">
  <advance width="599"/>
  <unicode hex="010F"/>
  <outline>
    <contour>
      <point x="576" y="696" type="line"/>
      <point x="634" y="666" type="line"/>
      <point x="547" y="510" type="line"/>
      <point x="515" y="529" type="line"/>
      <point x="571" y="629" type="line"/>
      <point x="534" y="651" type="line"/>
    </contour>
    <contour>
      <point x="421" y="696" type="line"/>
      <point x="459" y="703" type="line"/>
      <point x="443" y="9" type="line"/>
      <point x="405" y="2" type="line"/>
      <point x="407" y="97" type="line"/>
      <point x="365" y="57"/>
      <point x="298" y="6"/>
      <point x="220" y="6" type="curve" smooth="yes"/>
      <point x="105" y="6"/>
      <point x="53" y="117"/>
      <point x="53" y="225" type="curve" smooth="yes"/>
      <point x="53" y="315"/>
      <point x="80" y="495"/>
      <point x="271" y="495" type="curve" smooth="yes"/>
      <point x="327" y="495"/>
      <point x="377" y="475"/>
      <point x="416" y="457" type="curve"/>
    </contour>
    <contour>
      <point x="409" y="158" type="curve" smooth="yes"/>
      <point x="415" y="417" type="line"/>
      <point x="394" y="428"/>
      <point x="328" y="460"/>
      <point x="265" y="460" type="curve" smooth="yes"/>
      <point x="117" y="460"/>
      <point x="90" y="321"/>
      <point x="90" y="228" type="curve" smooth="yes"/>
      <point x="90" y="155"/>
      <point x="113" y="36"/>
      <point x="220" y="36" type="curve" smooth="yes"/>
      <point x="331" y="36"/>
      <point x="408" y="123"/>
    </contour>
  </outline>
</glyph>
<glyph name="Gcircumflex" format="1">
  <advance width="734"/>
  <unicode hex="011C"/>
  <outline>
    <contour>
      <point x="648" y="238" type="curve"/>
      <point x="635" y="178"/>
      <point x="585" y="-2"/>
      <point x="355" y="-2" type="curve" smooth="yes"/>
      <point x="183" y="-2"/>
      <point x="61" y="149"/>
      <point x="61" y="341" type="curve" smooth="yes"/>
      <point x="61" y="500"/>
      <point x="187" y="682"/>
      <point x="375" y="682" type="curve" smooth="yes"/>
      <point x="516" y="682"/>
      <point x="612" y="597"/>
      <point x="647" y="489" type="curve"/>
      <point x="613" y="482" type="line"/>
      <point x="584" y="584"/>
      <point x="502" y="648"/>
      <point x="375" y="648" type="curve" smooth="yes"/>
      <point x="180" y="648"/>
      <point x="97" y="444"/>
      <point x="97" y="341" type="curve" smooth="yes"/>
      <point x="97" y="190"/>
      <point x="185" y="33"/>
      <point x="355" y="33" type="curve" smooth="yes"/>
      <point x="491" y="33"/>
      <point x="581" y="110"/>
      <point x="615" y="241" type="curve"/>
      <point x="594" y="243"/>
      <point x="580" y="243"/>
      <point x="574" y="243" type="curve" smooth="yes"/>
      <point x="516" y="243"/>
      <point x="458" y="235"/>
      <point x="418" y="219" type="curve"/>
      <point x="418" y="256" type="line"/>
      <point x="464" y="269"/>
      <point x="522" y="277"/>
      <point x="577" y="277" type="curve" smooth="yes"/>
      <point x="614" y="277"/>
      <point x="652" y="273"/>
      <point x="684" y="267" type="curve"/>
      <point x="684" y="231" type="line"/>
      <point x="676" y="233"/>
      <point x="663" y="237"/>
    </contour>
    <contour>
      <point x="267" y="743" type="line"/>
      <point x="245" y="771" type="line"/>
      <point x="385" y="884" type="line"/>
      <point x="504" y="771" type="line"/>
      <point x="481" y="745" type="line"/>
      <point x="382" y="833" type="line"/>
    </contour>
  </outline>
</glyph>
<glyph name="Jcircumflex" format="1">
  <advance width="459"/>
  <unicode hex="0134"/>
  <outline>
    <contour>
      <point x="195" y="679" type="line"/>
      <point x="444" y="679" type="line"/>
      <point x="444" y="641" type="line"/>
      <point x="391" y="641" type="line"/>
      <point x="391" y="157" type="line" smooth="yes"/>
      <point x="391" y="65"/>
      <point x="322" y="1"/>
      <point x="222" y="1" type="curve" smooth="yes"/>
      <point x="124" y="1"/>
      <point x="53" y="67"/>
      <point x="53" y="157" type="curve" smooth="yes"/>
      <point x="53" y="183" type="line"/>
      <point x="90" y="191" type="line"/>
      <point x="90" y="157" type="line" smooth="yes"/>
      <point x="90" y="86"/>
      <point x="144" y="33"/>
      <point x="222" y="33" type="curve" smooth="yes"/>
      <point x="302" y="33"/>
      <point x="354" y="84"/>
      <point x="354" y="157" type="curve" smooth="yes"/>
      <point x="354" y="641" type="line"/>
      <point x="195" y="641" type="line"/>
    </contour>
    <contour>
      <point x="217" y="743" type="line"/>
      <point x="195" y="771" type="line"/>
      <point x="335" y="884" type="line"/>
      <point x="454" y="771" type="line"/>
      <point x="431" y="745" type="line"/>
      <point x="332" y="833" type="line"/>
    </contour>
  </outline>
</glyph>
<glyph name="jcircumflex" format="1">
  <advance width="303"/>
  <unicode hex="0135"/>
  <outline>
    <contour>
      <point x="-34" y="-28" type="curve"/>
      <point x="3" y="-21" type="line"/>
      <point x="24" y="-67"/>
      <point x="70" y="-155"/>
      <point x="124" y="-155" type="curve" smooth="yes"/>
      <point x="178" y="-155"/>
      <point x="202" y="-92"/>
      <point x="202" y="-16" type="curve" smooth="yes"/>
      <point x="202" y="2"/>
      <point x="199" y="231"/>
      <point x="195" y="503" type="curve"/>
      <point x="233" y="511" type="line"/>
      <point x="238" y="234"/>
      <point x="241" y="7"/>
      <point x="241" y="-10" type="curve" smooth="yes"/>
      <point x="241" y="-81"/>
      <point x="214" y="-187"/>
      <point x="124" y="-187" type="curve" smooth="yes"/>
      <point x="38" y="-187"/>
      <point x="-19" y="-66"/>
    </contour>
    <contour>
      <point x="103" y="575" type="line"/>
      <point x="81" y="603" type="line"/>
      <point x="224" y="718" type="line"/>
      <point x="344" y="603" type="line"/>
      <point x="321" y="577" type="line"/>
      <point x="221" y="667" type="line"/>
    </contour>
  </outline>
</glyph>
<glyph name="Lcaron" format="1">
  <advance width="522"/>
  <unicode hex="013D"/>
  <outline>
    <contour>
      <point x="114" y="1" type="line"/>
      <point x="114" y="669" type="line"/>
      <point x="151" y="676" type="line"/>
      <point x="151" y="40" type="line"/>
      <point x="503" y="66" type="line"/>
      <point x="507" y="30" type="line"/>
    </contour>
    <contour>
      <point x="309" y="884" type="line"/>
      <point x="331" y="854" type="line"/>
      <point x="190" y="743" type="line"/>
      <point x="72" y="855" type="line"/>
      <point x="96" y="883" type="line"/>
      <point x="194" y="792" type="line"/>
    </contour>
  </outline>
</glyph>
<glyph name="Ncaron" format="1">
  <advance width="605"/>
  <unicode hex="0147"/>
  <outline>
    <contour>
      <point x="426" y="884" type="line"/>
      <point x="448" y="854" type="line"/>
      <point x="307" y="743" type="line"/>
      <point x="188" y="855" type="line"/>
      <point x="212" y="883" type="line"/>
      <point x="310" y="792" type="line"/>
    </contour>
    <contour>
      <point x="513" y="672" type="line"/>
      <point x="547" y="679" type="line"/>
      <point x="547" y="12" type="line"/>
      <point x="495" y="1" type="line"/>
      <point x="103" y="631" type="line"/>
      <point x="103" y="11" type="line"/>
      <point x="69" y="3" type="line"/>
      <point x="68" y="666" type="line"/>
      <point x="114" y="680" type="line"/>
      <point x="513" y="45" type="line"/>
    </contour>
  </outline>
</glyph>
<glyph name="oe" format="1">
  <advance width="901"/>
  <unicode hex="0153"/>
  <outline>
    <contour>
      <point x="690" y="32" type="curve" smooth="yes"/>
      <point x="742" y="32"/>
      <point x="792" y="54"/>
      <point x="831" y="91" type="curve"/>
      <point x="841" y="81"/>
      <point x="846" y="75"/>
      <point x="854" y="68" type="curve"/>
      <point x="808" y="25"/>
      <point x="750" y="0"/>
      <point x="690" y="0" type="curve" smooth="yes"/>
      <point x="586" y="0"/>
      <point x="494" y="76"/>
      <point x="460" y="173" type="curve"/>
      <point x="420" y="70"/>
      <point x="332" y="0"/>
      <point x="246" y="0" type="curve" smooth="yes"/>
      <point x="133" y="0"/>
      <point x="48" y="107"/>
      <point x="48" y="233" type="curve" smooth="yes"/>
      <point x="48" y="380"/>
      <point x="149" y="500"/>
      <point x="280" y="500" type="curve" smooth="yes"/>
      <point x="356" y="500"/>
      <point x="433" y="432"/>
      <point x="466" y="342" type="curve"/>
      <point x="499" y="432"/>
      <point x="590" y="502"/>
      <point x="688" y="502" type="curve" smooth="yes"/>
      <point x="766" y="502"/>
      <point x="843" y="441"/>
      <point x="869" y="365" type="curve"/>
      <point x="500" y="160" type="line"/>
      <point x="538" y="84"/>
      <point x="609" y="32"/>
    </contour>
    <contour>
      <point x="441" y="266" type="curve" smooth="yes"/>
      <point x="441" y="375"/>
      <point x="368" y="470"/>
      <point x="275" y="470" type="curve" smooth="yes"/>
      <point x="173" y="470"/>
      <point x="84" y="358"/>
      <point x="84" y="231" type="curve" smooth="yes"/>
      <point x="84" y="123"/>
      <point x="151" y="29"/>
      <point x="248" y="29" type="curve" smooth="yes"/>
      <point x="346" y="29"/>
      <point x="441" y="141"/>
    </contour>
    <contour>
      <point x="480" y="251" type="curve" smooth="yes"/>
      <point x="480" y="233"/>
      <point x="483" y="214"/>
      <point x="489" y="190" type="curve"/>
      <point x="827" y="379" type="line"/>
      <point x="795" y="436"/>
      <point x="743" y="470"/>
      <point x="690" y="470" type="curve" smooth="yes"/>
      <point x="573" y="470"/>
      <point x="480" y="372"/>
    </contour>
  </outline>
</glyph>
<glyph name="rcaron" format="1">
  <advance width="392"/>
  <unicode hex="0159"/>
  <outline>
    <contour>
      <point x="346" y="718" type="line"/>
      <point x="367" y="687" type="line"/>
      <point x="225" y="575" type="line"/>
      <point x="105" y="688" type="line"/>
      <point x="129" y="717" type="line"/>
      <point x="228" y="625" type="line"/>
    </contour>
    <contour>
      <point x="106" y="500" type="line"/>
      <point x="106" y="366" type="line"/>
      <point x="135" y="421"/>
      <point x="211" y="502"/>
      <point x="296" y="502" type="curve" smooth="yes"/>
      <point x="338" y="502"/>
      <point x="371" y="474"/>
      <point x="371" y="438" type="curve" smooth="yes"/>
      <point x="371" y="404" type="line"/>
      <point x="334" y="397" type="line"/>
      <point x="334" y="419" type="line" smooth="yes"/>
      <point x="334" y="447"/>
      <point x="329" y="466"/>
      <point x="288" y="466" type="curve" smooth="yes"/>
      <point x="210" y="466"/>
      <point x="106" y="357"/>
      <point x="106" y="252" type="curve" smooth="yes"/>
      <point x="106" y="9" type="line"/>
      <point x="69" y="2" type="line"/>
      <point x="69" y="493" type="line"/>
    </contour>
  </outline>
</glyph>
<glyph name="Scaron" format="1">
  <advance width="589"/>
  <unicode hex="0160"/>
  <outline>
    <contour>
      <point x="440" y="884" type="line"/>
      <point x="461" y="854" type="line"/>
      <point x="321" y="743" type="line"/>
      <point x="203" y="855" type="line"/>
      <point x="226" y="883" type="line"/>
      <point x="324" y="792" type="line"/>
    </contour>
    <contour>
      <point x="142" y="520" type="curve" smooth="yes"/>
      <point x="142" y="449"/>
      <point x="206" y="409"/>
      <point x="316" y="378" type="curve" smooth="yes"/>
      <point x="458" y="337"/>
      <point x="534" y="275"/>
      <point x="534" y="183" type="curve" smooth="yes"/>
      <point x="534" y="57"/>
      <point x="407" y="-1"/>
      <point x="307" y="-1" type="curve" smooth="yes"/>
      <point x="195" y="-1"/>
      <point x="101" y="54"/>
      <point x="67" y="138" type="curve"/>
      <point x="109" y="145" type="line"/>
      <point x="142" y="67"/>
      <point x="226" y="33"/>
      <point x="302" y="33" type="curve" smooth="yes"/>
      <point x="404" y="33"/>
      <point x="495" y="82"/>
      <point x="495" y="183" type="curve" smooth="yes"/>
      <point x="495" y="218"/>
      <point x="479" y="294"/>
      <point x="309" y="340" type="curve" smooth="yes"/>
      <point x="212" y="366"/>
      <point x="100" y="415"/>
      <point x="100" y="519" type="curve" smooth="yes"/>
      <point x="100" y="657"/>
      <point x="229" y="681"/>
      <point x="329" y="681" type="curve" smooth="yes"/>
      <point x="418" y="681"/>
      <point x="531" y="650"/>
      <point x="531" y="545" type="curve" smooth="yes"/>
      <point x="531" y="536" type="line"/>
      <point x="498" y="527" type="line"/>
      <point x="498" y="532" type="line" smooth="yes"/>
      <point x="498" y="625"/>
      <point x="393" y="646"/>
      <point x="329" y="646" type="curve" smooth="yes"/>
      <point x="175" y="646"/>
      <point x="142" y="584"/>
    </contour>
  </outline>
</glyph>
<glyph name="scaron" format="1">
  <advance width="450"/>
  <unicode hex="0161"/>
  <outline>
    <contour>
      <point x="361" y="718" type="line"/>
      <point x="383" y="687" type="line"/>
      <point x="240" y="575" type="line"/>
      <point x="120" y="688" type="line"/>
      <point x="144" y="717" type="line"/>
      <point x="243" y="625" type="line"/>
    </contour>
    <contour>
      <point x="373" y="386" type="line"/>
      <point x="373" y="390" type="line" smooth="yes"/>
      <point x="373" y="456"/>
      <point x="307" y="475"/>
      <point x="255" y="475" type="curve" smooth="yes"/>
      <point x="149" y="474"/>
      <point x="119" y="433"/>
      <point x="119" y="380" type="curve" smooth="yes"/>
      <point x="119" y="333"/>
      <point x="161" y="306"/>
      <point x="244" y="284" type="curve" smooth="yes"/>
      <point x="353" y="254"/>
      <point x="406" y="215"/>
      <point x="406" y="141" type="curve" smooth="yes"/>
      <point x="406" y="30"/>
      <point x="290" y="0"/>
      <point x="234" y="0" type="curve" smooth="yes"/>
      <point x="154" y="0"/>
      <point x="81" y="35"/>
      <point x="57" y="107" type="curve"/>
      <point x="92" y="112" type="line"/>
      <point x="114" y="59"/>
      <point x="175" y="31"/>
      <point x="234" y="31" type="curve" smooth="yes"/>
      <point x="305" y="31"/>
      <point x="368" y="75"/>
      <point x="368" y="140" type="curve" smooth="yes"/>
      <point x="368" y="206"/>
      <point x="310" y="229"/>
      <point x="237" y="249" type="curve" smooth="yes"/>
      <point x="164" y="268"/>
      <point x="82" y="303"/>
      <point x="82" y="381" type="curve" smooth="yes"/>
      <point x="82" y="484"/>
      <point x="182" y="505"/>
      <point x="255" y="505" type="curve" smooth="yes"/>
      <point x="310" y="505"/>
      <point x="404" y="487"/>
      <point x="404" y="403" type="curve" smooth="yes"/>
      <point x="404" y="394" type="line"/>
    </contour>
  </outline>
</glyph>
<glyph name="uni0163" format="1">
  <advance width="363"/>
  <unicode hex="0163"/>
  <outline>
    <contour>
      <point x="348" y="502" type="line"/>
      <point x="348" y="465" type="line"/>
      <point x="205" y="465" type="line"/>
      <point x="205" y="9" type="line"/>
      <point x="166" y="2" type="line"/>
      <point x="166" y="465" type="line"/>
      <point x="22" y="465" type="line"/>
      <point x="22" y="502" type="line"/>
      <point x="166" y="502" type="line"/>
      <point x="166" y="669" type="line"/>
      <point x="205" y="676" type="line"/>
      <point x="205" y="502" type="line"/>
    </contour>
    <contour>
      <point x="189" y="-44" type="line"/>
      <point x="246" y="-74" type="line"/>
      <point x="160" y="-229" type="line"/>
      <point x="128" y="-210" type="line"/>
      <point x="184" y="-110" type="line"/>
      <point x="146" y="-89" type="line"/>
    </contour>
  </outline>
</glyph>
<glyph name="Ubreve" format="1">
  <advance width="674"/>
  <unicode hex="016C"/>
  <outline>
    <contour>
      <point x="342" y="0" type="curve" smooth="yes"/>
      <point x="107" y="0"/>
      <point x="68" y="199"/>
      <point x="68" y="463" type="curve" smooth="yes"/>
      <point x="68" y="532"/>
      <point x="69" y="635"/>
      <point x="70" y="671" type="curve"/>
      <point x="107" y="678" type="line"/>
      <point x="106" y="655"/>
      <point x="105" y="540"/>
      <point x="105" y="453" type="curve" smooth="yes"/>
      <point x="105" y="233"/>
      <point x="130" y="30"/>
      <point x="342" y="30" type="curve" smooth="yes"/>
      <point x="562" y="30"/>
      <point x="579" y="253"/>
      <point x="579" y="434" type="curve" smooth="yes"/>
      <point x="579" y="513"/>
      <point x="578" y="624"/>
      <point x="577" y="670" type="curve"/>
      <point x="615" y="678" type="line"/>
      <point x="616" y="653"/>
      <point x="616" y="556"/>
      <point x="616" y="480" type="curve" smooth="yes"/>
      <point x="616" y="247"/>
      <point x="597" y="0"/>
    </contour>
    <contour>
      <point x="343" y="788" type="curve" smooth="yes"/>
      <point x="396" y="788"/>
      <point x="444" y="813"/>
      <point x="464" y="862" type="curve"/>
      <point x="482" y="845" type="line"/>
      <point x="461" y="796"/>
      <point x="404" y="761"/>
      <point x="345" y="761" type="curve" smooth="yes"/>
      <point x="279" y="761"/>
      <point x="225" y="793"/>
      <point x="200" y="841" type="curve"/>
      <point x="216" y="858" type="line"/>
      <point x="254" y="800"/>
      <point x="304" y="788"/>
    </contour>
  </outline>
</glyph>
<glyph name="uring" format="1">
  <advance width="505"/>
  <unicode hex="016F"/>
  <outline>
    <contour>
      <point x="104" y="291" type="curve" smooth="yes"/>
      <point x="105" y="159"/>
      <point x="100" y="26"/>
      <point x="218" y="26" type="curve" smooth="yes"/>
      <point x="294" y="26"/>
      <point x="371" y="97"/>
      <point x="394" y="123" type="curve" smooth="yes"/>
      <point x="402" y="132"/>
      <point x="409" y="149"/>
      <point x="409" y="175" type="curve" smooth="yes"/>
      <point x="410" y="495" type="line"/>
      <point x="449" y="502" type="line"/>
      <point x="449" y="9" type="line"/>
      <point x="405" y="2" type="line"/>
      <point x="405" y="90" type="line"/>
      <point x="367" y="47"/>
      <point x="292" y="-6"/>
      <point x="217" y="-6" type="curve" smooth="yes"/>
      <point x="69.9735" y="-6"/>
      <point x="68.9998" y="143.948"/>
      <point x="68.9998" y="285.312" type="curve" smooth="yes"/>
      <point x="68.9998" y="287.21"/>
      <point x="69" y="289.106"/>
      <point x="69" y="291" type="curve" smooth="yes"/>
      <point x="69" y="335"/>
      <point x="73" y="425"/>
      <point x="84" y="495" type="curve"/>
      <point x="120" y="502" type="line"/>
      <point x="115" y="465"/>
      <point x="104" y="368"/>
    </contour>
    <contour>
      <point x="272" y="587" type="curve" smooth="yes"/>
      <point x="209" y="587"/>
      <point x="165" y="630"/>
      <point x="165" y="682" type="curve" smooth="yes"/>
      <point x="165" y="741"/>
      <point x="222" y="792"/>
      <point x="292" y="792" type="curve" smooth="yes"/>
      <point x="358" y="792"/>
      <point x="399" y="744"/>
      <point x="399" y="697" type="curve" smooth="yes"/>
      <point x="399" y="627"/>
      <point x="331" y="587"/>
    </contour>
    <contour>
      <point x="289" y="767" type="curve" smooth="yes"/>
      <point x="249" y="767"/>
      <point x="190" y="734"/>
      <point x="190" y="682" type="curve" smooth="yes"/>
      <point x="190" y="641"/>
      <point x="225" y="611"/>
      <point x="274" y="611" type="curve" smooth="yes"/>
      <point x="322" y="611"/>
      <point x="373" y="648"/>
      <point x="373" y="694" type="curve" smooth="yes"/>
      <point x="373" y="735"/>
      <point x="337" y="767"/>
    </contour>
  </outline>
</glyph>
<glyph name="Ydieresis" format="1">
  <advance width="618"/>
  <unicode hex="0178"/>
  <outline>
    <contour>
      <point x="285" y="822" type="line"/>
      <point x="278" y="758" type="line"/>
      <point x="224" y="750" type="line"/>
      <point x="230" y="814" type="line"/>
    </contour>
    <contour>
      <point x="450" y="822" type="line"/>
      <point x="442" y="758" type="line"/>
      <point x="389" y="750" type="line"/>
      <point x="395" y="814" type="line"/>
    </contour>
    <contour>
      <point x="322" y="243" type="line"/>
      <point x="579" y="677" type="line"/>
      <point x="619" y="677" type="line"/>
      <point x="217" y="0" type="line"/>
      <point x="178" y="0" type="line"/>
      <point x="301" y="210" type="line"/>
      <point x="29" y="677" type="line"/>
      <point x="68" y="677" type="line"/>
    </contour>
  </outline>
</glyph>
<glyph name="zacute" format="1">
  <advance width="443"/>
  <unicode hex="017A"/>
  <outline>
    <contour>
      <point x="404" y="0" type="line"/>
      <point x="51" y="0" type="line"/>
      <point x="33" y="35" type="line"/>
      <point x="375" y="465" type="line"/>
      <point x="57" y="465" type="line"/>
      <point x="65" y="502" type="line"/>
      <point x="402" y="502" type="line"/>
      <point x="420" y="468" type="line"/>
      <point x="78" y="37" type="line"/>
      <point x="411" y="37" type="line"/>
    </contour>
    <contour>
      <point x="151" y="617" type="line"/>
      <point x="291" y="730" type="line"/>
      <point x="329" y="698" type="line"/>
      <point x="176" y="593" type="line"/>
    </contour>
  </outline>
</glyph>
<glyph name="Zdotaccent" format="1">
  <advance width="611"/>
  <unicode hex="017B"/>
  <outline>
    <contour>
      <point x="72" y="0" type="line"/>
      <point x="52" y="44" type="line"/>
      <point x="518" y="639" type="line"/>
      <point x="83" y="639" type="line"/>
      <point x="92" y="681" type="line"/>
      <point x="547" y="681" type="line"/>
      <point x="567" y="637" type="line"/>
      <point x="100" y="42" type="line"/>
      <point x="557" y="42" type="line"/>
      <point x="549" y="0" type="line"/>
    </contour>
    <contour>
      <point x="341" y="823" type="line"/>
      <point x="333" y="759" type="line"/>
      <point x="280" y="751" type="line"/>
      <point x="286" y="815" type="line"/>
    </contour>
  </outline>
</glyph>
<glyph name="zdotaccent" format="1">
  <advance width="443"/>
  <unicode hex="017C"/>
  <outline>
    <contour>
      <point x="272" y="669" type="line"/>
      <point x="265" y="604" type="line"/>
      <point x="210" y="596" type="line"/>
      <point x="217" y="660" type="line"/>
    </contour>
    <contour>
      <point x="404" y="0" type="line"/>
      <point x="51" y="0" type="line"/>
      <point x="33" y="35" type="line"/>
      <point x="375" y="465" type="line"/>
      <point x="57" y="465" type="line"/>
      <point x="65" y="502" type="line"/>
      <point x="402" y="502" type="line"/>
      <point x="420" y="468" type="line"/>
      <point x="78" y="37" type="line"/>
      <point x="411" y="37" type="line"/>
    </contour>
  </outline>
</glyph>
<glyph name="Zcaron" format="1">
  <advance width="611"/>
  <unicode hex="017D"/>
  <outline>
    <contour>
      <point x="426" y="884" type="line"/>
      <point x="448" y="854" type="line"/>
      <point x="308" y="743" type="line"/>
      <point x="189" y="855" type="line"/>
      <point x="213" y="883" type="line"/>
      <point x="311" y="792" type="line"/>
    </contour>
    <contour>
      <point x="72" y="0" type="line"/>
      <point x="52" y="44" type="line"/>
      <point x="518" y="639" type="line"/>
      <point x="83" y="639" type="line"/>
      <point x="92" y="681" type="line"/>
      <point x="547" y="681" type="line"/>
      <point x="567" y="637" type="line"/>
      <point x="100" y="42" type="line"/>
      <point x="557" y="42" type="line"/>
      <point x="549" y="0" type="line"/>
    </contour>
  </outline>
</glyph>
<glyph name="breve" format="1">
  <advance width="490"/>
  <unicode hex="02D8"/>
  <outline>
    <contour>
      <point x="253" y="609" type="curve" smooth="yes"/>
      <point x="306" y="609"/>
      <point x="354" y="634"/>
      <point x="374" y="683" type="curve"/>
      <point x="392" y="666" type="line"/>
      <point x="371" y="617"/>
      <point x="314" y="582"/>
      <point x="255" y="582" type="curve" smooth="yes"/>
      <point x="189" y="582"/>
      <point x="135" y="614"/>
      <point x="110" y="662" type="curve"/>
      <point x="126" y="679" type="line"/>
      <point x="164" y="621"/>
      <point x="214" y="609"/>
    </contour>
  </outline>
</glyph>
<glyph name="ogonek" format="1">
  <advance width="490"/>
  <unicode hex="02DB"/>
  <outline>
    <contour>
      <point x="323" y="-149" type="curve"/>
      <point x="340" y="-172" type="line"/>
      <point x="322" y="-191"/>
      <point x="285" y="-209"/>
      <point x="248" y="-209" type="curve" smooth="yes"/>
      <point x="191" y="-209"/>
      <point x="149" y="-168"/>
      <point x="149" y="-112" type="curve" smooth="yes"/>
      <point x="149" y="-52"/>
      <point x="202" y="-3"/>
      <point x="245" y="21" type="curve" smooth="yes"/>
      <point x="256" y="27" type="line"/>
      <point x="274" y="5" type="line"/>
      <point x="246" y="-15" type="line" smooth="yes"/>
      <point x="219" y="-35"/>
      <point x="180" y="-63"/>
      <point x="180" y="-113" type="curve" smooth="yes"/>
      <point x="180" y="-152"/>
      <point x="210" y="-177"/>
      <point x="248" y="-177" type="curve" smooth="yes"/>
      <point x="283" y="-177"/>
      <point x="299" y="-166"/>
    </contour>
  </outline>
</glyph>
<glyph name="hungarumlaut" format="1">
  <advance width="490"/>
  <unicode hex="02DD"/>
  <outline>
    <contour>
      <point x="77" y="617" type="line"/>
      <point x="217" y="730" type="line"/>
      <point x="254" y="698" type="line"/>
      <point x="102" y="593" type="line"/>
    </contour>
    <contour>
      <point x="244" y="617" type="line"/>
      <point x="384" y="730" type="line"/>
      <point x="422" y="698" type="line"/>
      <point x="270" y="593" type="line"/>
    </contour>
  </outline>
</glyph>
<glyph name="endash" format="1">
  <advance width="586"/>
  <unicode hex="2013"/>
  <outline>
    <contour>
      <point x="517" y="231" type="line"/>
      <point x="75" y="231" type="line"/>
      <point x="83" y="267" type="line"/>
      <point x="525" y="267" type="line"/>
    </contour>
  </outline>
</glyph>
<glyph name="quoteleft" format="1">
  <advance width="172"/>
  <unicode hex="2018"/>
  <outline>
    <contour>
      <point x="86" y="570" type="line"/>
      <point x="29" y="600" type="line"/>
      <point x="115" y="755" type="line"/>
      <point x="147" y="736" type="line"/>
      <point x="91" y="636" type="line"/>
      <point x="129" y="614" type="line"/>
    </contour>
  </outline>
</glyph>
<glyph name="quoteright" format="1">
  <advance width="172"/>
  <unicode hex="2019"/>
  <outline>
    <contour>
      <point x="90" y="756" type="line"/>
      <point x="147" y="726" type="line"/>
      <point x="61" y="571" type="line"/>
      <point x="29" y="589" type="line"/>
      <point x="85" y="689" type="line"/>
      <point x="47" y="711" type="line"/>
    </contour>
  </outline>
</glyph>
<glyph name="quotedblleft" format="1">
  <advance width="338"/>
  <unicode hex="201C"/>
  <outline>
    <contour>
      <point x="257" y="570" type="line"/>
      <point x="200" y="600" type="line"/>
      <point x="286" y="755" type="line"/>
      <point x="318" y="736" type="line"/>
      <point x="262" y="636" type="line"/>
      <point x="300" y="614" type="line"/>
    </contour>
    <contour>
      <point x="84" y="570" type="line"/>
      <point x="27" y="600" type="line"/>
      <point x="113" y="755" type="line"/>
      <point x="146" y="736" type="line"/>
      <point x="89" y="636" type="line"/>
      <point x="127" y="614" type="line"/>
    </contour>
  </outline>
</glyph>
<glyph name="quotedblright" format="1">
  <advance width="338"/>
  <unicode hex="201D"/>
  <outline>
    <contour>
      <point x="88" y="756" type="line"/>
      <point x="146" y="726" type="line"/>
      <point x="59" y="571" type="line"/>
      <point x="27" y="589" type="line"/>
      <point x="83" y="689" type="line"/>
      <point x="46" y="711" type="line"/>
    </contour>
    <contour>
      <point x="261" y="756" type="line"/>
      <point x="318" y="726" type="line"/>
      <point x="232" y="571" type="line"/>
      <point x="200" y="589" type="line"/>
      <point x="256" y="689" type="line"/>
      <point x="218" y="711" type="line"/>
    </contour>
  </outline>
</glyph>
<glyph name="quotedblbase" format="1">
  <advance width="478"/>
  <unicode hex="201E"/>
  <outline>
    <contour>
      <point x="161" y="61" type="line"/>
      <point x="219" y="31" type="line"/>
      <point x="132" y="-124" type="line"/>
      <point x="100" y="-106" type="line"/>
      <point x="156" y="-6" type="line"/>
      <point x="119" y="16" type="line"/>
    </contour>
    <contour>
      <point x="334" y="61" type="line"/>
      <point x="391" y="31" type="line"/>
      <point x="305" y="-124" type="line"/>
      <point x="273" y="-106" type="line"/>
      <point x="329" y="-6" type="line"/>
      <point x="291" y="16" type="line"/>
    </contour>
  </outline>
</glyph>
<glyph name="ellipsis" format="1">
  <advance width="724"/>
  <unicode hex="2026"/>
  <outline>
    <contour>
      <point x="133" y="74" type="line"/>
      <point x="126" y="9" type="line"/>
      <point x="72" y="1" type="line"/>
      <point x="78" y="66" type="line"/>
    </contour>
    <contour>
      <point x="400" y="74" type="line"/>
      <point x="393" y="9" type="line"/>
      <point x="338" y="1" type="line"/>
      <point x="345" y="66" type="line"/>
    </contour>
    <contour>
      <point x="666" y="74" type="line"/>
      <point x="659" y="9" type="line"/>
      <point x="605" y="1" type="line"/>
      <point x="611" y="66" type="line"/>
    </contour>
  </outline>
</glyph>
